<?xml version="1.0" encoding="UTF-8" standalone="no"?>
<!DOCTYPE svg PUBLIC "-//W3C//DTD SVG 1.1//EN" "http://www.w3.org/Graphics/SVG/1.1/DTD/svg11.dtd">
<svg width="100%" height="100%" viewBox="0 0 527 573" version="1.1" xmlns="http://www.w3.org/2000/svg" xmlns:xlink="http://www.w3.org/1999/xlink" xml:space="preserve" xmlns:serif="http://www.serif.com/" style="fill-rule:evenodd;clip-rule:evenodd;stroke-linejoin:round;stroke-miterlimit:2;">
    <g transform="matrix(1,0,0,1,-276.593,-253.591)">
        <g transform="matrix(1,0,0,1,63.4069,-86.409)">
            <g transform="matrix(0.740375,-0.473981,0.473981,0.740375,-238.577,326.202)">
                <path d="M382.953,587.96C406.039,573.764 540.195,908.668 520.389,914.157C455.863,932.04 365.388,936.084 263.023,913.214C320.643,888.025 319.167,892.688 326.031,870.435C303.518,839.801 211.69,860.837 148.815,887.593C170.625,833.076 287.845,777.071 313.241,779.131C272.652,779.253 199.275,773.046 137.717,738.004C183.394,747.419 243.64,719.384 269.793,680.074C286.657,645.292 339.881,614.445 382.953,587.96Z"/>
            </g>
            <g transform="matrix(1.1,0,0,1.1,-21,-21)">
                <path d="M546.364,706.696C534.571,708.866 522.417,710 510,710C412.034,710 330.424,639.411 313.304,546.364C311.134,534.571 310,522.417 310,510C310,399.617 639.411,689.576 546.364,706.696Z" style="fill:white;"/>
            </g>
            <path d="M540,340C650.383,340 740,429.617 740,540C740,650.383 650.383,740 540,740C429.617,740 340,650.383 340,540C340,429.617 429.617,340 540,340ZM540,380C562.077,380 580,391.202 580,405C580,418.798 562.077,430 540,430C517.923,430 500,418.798 500,405C500,391.202 517.923,380 540,380Z"/>
        </g>
    </g>
</svg>
