<?xml version="1.0" encoding="UTF-8" standalone="no"?><!DOCTYPE svg PUBLIC "-//W3C//DTD SVG 1.1//EN" "http://www.w3.org/Graphics/SVG/1.1/DTD/svg11.dtd"><svg width="100%" height="100%" viewBox="0 0 2181 2181" version="1.1" xmlns="http://www.w3.org/2000/svg" xmlns:xlink="http://www.w3.org/1999/xlink" xml:space="preserve" xmlns:serif="http://www.serif.com/" style="fill-rule:evenodd;clip-rule:evenodd;stroke-linejoin:round;stroke-miterlimit:2;"><path d="M1090.24,0c601.718,0 1090.24,488.518 1090.24,1090.24c-0,601.718 -488.518,1090.24 -1090.24,1090.24c-601.718,-0 -1090.24,-488.518 -1090.24,-1090.24c0,-601.718 488.518,-1090.24 1090.24,-1090.24Zm510.888,1441.54l-0,-822.918c-0,-11.721 -5.054,-22.873 -13.866,-30.601c-8.812,-7.727 -20.529,-11.281 -32.149,-9.75l-731.311,96.34c-6.297,0.735 -12.156,2.908 -17.236,6.18l-0.109,0.071l-0.041,0.026c-2.667,1.732 -5.111,3.766 -7.289,6.049l-0.096,0.101l-0.051,0.055l-0.036,0.037l-0.067,0.072l-0.038,0.04l-0.062,0.067l-0.068,0.073c-6.372,6.877 -10.397,15.963 -10.801,25.981l-0.004,0.097l-0.005,0.142l-0.005,0.119l-0.007,0.262l-0.002,0.095l-0.002,0.067l-0.002,0.1l-0.001,0.071l-0.001,0.095l-0.002,0.096l-0.001,0.048l-0.002,0.239l-0,0.239c-0,0 -0,623.967 -0,623.967c-27.076,-8.488 -56.553,-13.173 -87.56,-13.173c-138.177,-0 -245.962,93.045 -245.962,200.866c0,107.82 107.785,200.866 245.962,200.866c138.178,0 245.962,-93.046 245.962,-200.866c0,-1.229 -0.014,-2.456 -0.041,-3.674c0.027,-0.615 0.041,-1.237 0.041,-1.862l0,-592.135l496.449,-65.4l-0,395.76c-27.076,-8.487 -56.552,-13.173 -87.559,-13.173c-138.178,0 -245.963,93.046 -245.963,200.867c0,107.82 107.785,200.866 245.963,200.866c138.177,0 245.962,-93.046 245.962,-200.866c-0,-1.229 -0.014,-2.457 -0.042,-3.674c0.027,-0.616 0.042,-1.237 0.042,-1.862Z" style="fill:#130f00;"/></svg>