<?xml version="1.0" encoding="UTF-8" standalone="no"?><!DOCTYPE svg PUBLIC "-//W3C//DTD SVG 1.1//EN" "http://www.w3.org/Graphics/SVG/1.1/DTD/svg11.dtd"><svg width="100%" height="100%" viewBox="0 0 2278 2278" version="1.1" xmlns="http://www.w3.org/2000/svg" xmlns:xlink="http://www.w3.org/1999/xlink" xml:space="preserve" xmlns:serif="http://www.serif.com/" style="fill-rule:evenodd;clip-rule:evenodd;stroke-linejoin:round;stroke-miterlimit:2;"><path d="M1138.75,0.817c628.04,-0 1137.93,509.889 1137.93,1137.93c0,628.04 -509.889,1137.93 -1137.93,1137.93c-628.04,0 -1137.93,-509.889 -1137.93,-1137.93c-0,-628.04 509.889,-1137.93 1137.93,-1137.93Zm-200.243,1602.93c-254.166,24.996 -458.39,41.658 -458.39,41.658c54.95,211.338 139.709,355.988 945.876,259.33c232.19,-27.839 381.598,-211.306 450.61,-432.217c-127.627,44.736 -579.994,95.982 -935.693,130.993c21.977,-224.165 32.733,-451.129 33.559,-680.575c0.857,-238.139 -8.984,-478.953 -28.081,-722.08l-7.881,1402.89Zm-409.786,-14.894l361.04,-44.127l-8.023,-942.715c-174.979,300.294 -285.015,633.06 -353.017,986.842Zm489.41,-1327.82c72.208,332.959 80.231,1059.05 -4.012,1283.7c228.659,-128.369 505.456,-232.67 862.484,-136.393c-8.023,-553.594 -517.49,-958.761 -858.472,-1147.3Z" style="fill:#fef9ec;"/><path d="M1138.75,0.759c-314.051,-0.039 -598.576,127.415 -804.599,333.388c-206.043,205.992 -333.569,490.517 -333.607,804.599c-0.037,314.111 127.442,598.69 333.455,804.751c206.032,206.08 490.611,333.629 804.751,333.666c314.169,0.035 598.798,-127.47 804.895,-333.522c206.115,-206.07 333.682,-490.7 333.715,-804.895c0.029,-314.219 -127.499,-598.895 -333.591,-805.019c-206.105,-206.136 -490.781,-333.708 -805.019,-333.727l0,0.759Zm0,0.875c313.802,-0.019 598.091,127.353 803.941,333.172c205.862,205.831 333.279,490.119 333.308,803.94c0.032,313.845 -127.344,598.18 -333.185,804.064c-205.857,205.903 -490.192,333.343 -804.064,333.378c-313.9,0.036 -598.286,-127.359 -804.208,-333.233c-205.942,-205.894 -333.407,-490.28 -333.445,-804.209c-0.037,-313.959 127.381,-598.398 333.293,-804.36c205.931,-205.982 490.371,-333.473 804.36,-333.512l0,0.76Zm-200.323,1601.3c-83.605,8.225 -161.807,15.547 -229.112,21.673c-137.302,12.497 -229.262,20.009 -229.262,20.009c-0.233,0.019 -0.445,0.14 -0.58,0.33c-0.135,0.191 -0.18,0.431 -0.121,0.657c27.554,105.927 62.611,195.112 191.805,245.704c128.908,50.479 351.736,62.482 754.916,14.096c117.689,-14.126 214.136,-68.174 289.647,-146.805c73.63,-76.671 127.352,-176.718 161.447,-285.904c0.067,-0.214 0.007,-0.446 -0.153,-0.602c-0.161,-0.155 -0.396,-0.206 -0.606,-0.132c-50.501,17.708 -151.87,36.438 -277.976,54.786c-192.356,27.988 -442.25,55.075 -657.005,76.247c10.997,-112.427 19.172,-225.558 24.688,-339.353c5.473,-112.927 8.327,-226.508 8.722,-340.704c0.414,-119.785 -1.879,-240.246 -6.695,-361.338c-4.759,-119.654 -11.982,-239.923 -21.491,-360.764c-0.011,-0.141 -0.131,-0.248 -0.273,-0.243c-0.141,0.005 -0.253,0.121 -0.254,0.262l-7.675,1402.89l-0.022,-0.812Zm0.137,0.813c0,-0 7.466,-1295.02 8.052,-1396.59c9.231,118.712 16.252,236.886 20.895,354.464c4.781,121.083 7.039,241.535 6.59,361.31c-0.427,114.184 -3.314,227.752 -8.819,340.667c-5.556,113.968 -13.779,227.27 -24.834,339.865c-0.013,0.138 0.036,0.275 0.134,0.373c0.098,0.099 0.235,0.148 0.374,0.134c214.902,-21.123 465.089,-48.167 657.636,-76.13c125.292,-18.196 226.185,-36.786 277.096,-54.381c-34.08,108.555 -87.609,208.002 -160.88,284.261c-75.326,78.399 -171.521,132.285 -288.895,146.343c-402.811,48.251 -625.427,36.289 -754.203,-14.17c-128.233,-50.247 -163.218,-138.722 -190.591,-243.78c9.995,-0.818 99.075,-8.148 228.342,-19.898c67.31,-6.119 145.516,-13.438 229.126,-21.658l-0.023,-0.812Zm-409.899,-15.049c-0.004,0.257 0.002,0.521 0.014,0.712c0.013,0.191 0.031,0.285 0.049,0.253l0.092,0l361.031,-44.199c0.376,-0.046 0.657,-0.367 0.654,-0.745l-8.323,-942.713c-0.002,-0.2 -0.137,-0.374 -0.33,-0.425c-0.193,-0.051 -0.397,0.033 -0.498,0.206c-88.314,151.688 -160.065,311.65 -218.199,478.413c-56.987,163.475 -100.89,333.485 -134.49,508.642l-0,-0.144Zm0.278,-0.696c33.706,-174.812 77.682,-344.485 134.691,-507.634c58.063,-166.167 129.645,-325.566 217.673,-476.736c-0,0 7.474,912.299 7.705,940.435l-360.069,43.935Zm489.215,-1327.69c-0.019,-0.155 -0.044,-0.131 -0.062,0.06c-0.018,0.191 -0.026,0.515 -0.021,0.828l-0.743,0c34.222,157.699 54.042,403.615 56.491,642.648c2.721,265.484 -15.978,522.479 -60.271,640.664c-0.089,0.238 -0.02,0.506 0.173,0.672c0.193,0.166 0.469,0.193 0.691,0.069c123.416,-69.321 260.865,-131.631 417.408,-159.14c133.331,-23.43 280.513,-21.614 444.672,22.615c0.125,0.033 0.257,0.006 0.359,-0.073c0.102,-0.079 0.16,-0.201 0.158,-0.329c-3.081,-209.26 -77.775,-397.305 -187.938,-560.456c-181.324,-268.541 -458.737,-469.636 -670.917,-586.893l0,-0.665Zm0.938,1.315c211.958,117.415 488.648,318.388 669.529,586.546c109.918,162.953 184.456,350.717 187.56,559.621c-164.076,-44.204 -311.218,-46.054 -444.537,-22.686c-156.076,27.357 -293.208,89.279 -416.385,158.28c43.958,-118.942 62.646,-375.033 60.022,-639.554c-2.369,-238.762 -22.095,-484.391 -56.189,-642.206l0,-0.001Z" style="fill:#140f00;"/></svg>