<?xml version="1.0" encoding="UTF-8" standalone="no"?><!DOCTYPE svg PUBLIC "-//W3C//DTD SVG 1.1//EN" "http://www.w3.org/Graphics/SVG/1.1/DTD/svg11.dtd"><svg width="100%" height="100%" viewBox="0 0 1397 1766" version="1.1" xmlns="http://www.w3.org/2000/svg" xmlns:xlink="http://www.w3.org/1999/xlink" xml:space="preserve" xmlns:serif="http://www.serif.com/" style="fill-rule:evenodd;clip-rule:evenodd;stroke-linecap:round;stroke-linejoin:round;stroke-miterlimit:1.5;"><g><path d="M48.604,1418.61l361.04,-44.127l-8.023,-942.715c-174.979,300.294 -285.015,633.059 -353.017,986.842Z" style="fill:#fef9ec;"/><path d="M0,1475.16c0,-0 1177.27,-96.048 1396.49,-172.887c-69.013,220.911 -218.42,404.378 -450.61,432.217c-806.168,96.657 -890.926,-47.992 -945.876,-259.33Z" style="fill:#fef9ec;"/><path d="M458.248,1458.72c47.385,-464.86 46.218,-941.858 8.023,-1428.11" style="fill:none;stroke:#fef9ec;stroke-width:61.22px;"/><path d="M538.013,90.784c72.208,332.959 80.232,1059.05 -4.011,1283.7c228.658,-128.37 505.456,-232.67 862.484,-136.393c-8.023,-553.594 -517.49,-958.761 -858.473,-1147.3Z" style="fill:#fef9ec;"/></g></svg>