<?xml version="1.0" encoding="UTF-8" standalone="no"?>
<!DOCTYPE svg PUBLIC "-//W3C//DTD SVG 1.1//EN" "http://www.w3.org/Graphics/SVG/1.1/DTD/svg11.dtd">
<svg width="100%" height="100%" viewBox="0 0 868 828" version="1.1" xmlns="http://www.w3.org/2000/svg" xmlns:xlink="http://www.w3.org/1999/xlink" xml:space="preserve" xmlns:serif="http://www.serif.com/" style="fill-rule:evenodd;clip-rule:evenodd;stroke-linecap:round;stroke-linejoin:round;stroke-miterlimit:1.5;">
    <g transform="matrix(1,0,0,1,-106.425,-63.4255)">
        <g transform="matrix(1,0,0,1,0,-33)">
            <g transform="matrix(1,0,0,1,20,-15)">
                <g transform="matrix(1.03,0.03,0.03,1.03,-80,45)">
                    <g transform="matrix(0.971698,-0.0283019,-0.0283019,0.971698,159.835,59.8353)">
                        <path d="M222.862,148.575C202.362,128.074 169.075,128.074 148.575,148.575C128.074,169.075 128.074,202.362 148.575,222.862C169.075,243.362 202.362,243.362 222.862,222.862C243.362,202.362 243.362,169.075 222.862,148.575Z"/>
                        <path d="M208.004,208.004C231.752,231.752 253.575,253.575 253.575,253.575" style="fill:none;stroke:black;stroke-width:70.04px;"/>
                    </g>
                </g>
                <g transform="matrix(1.03,0.03,0.03,1.03,-80,45)">
                    <g transform="matrix(0.971698,-0.0283019,-0.0283019,0.971698,159.835,59.8353)">
                        <path d="M678.575,604.287C699.075,624.787 699.075,658.074 678.575,678.575C658.074,699.075 624.787,699.075 604.287,678.575C583.787,658.074 583.787,624.787 604.287,604.287C624.787,583.787 658.074,583.787 678.575,604.287Z"/>
                        <path d="M526.575,526.575C526.575,526.575 576.515,576.515 619.145,619.145" style="fill:none;stroke:black;stroke-width:70.04px;"/>
                    </g>
                </g>
                <g transform="matrix(-1.03,0.03,-0.03,1.03,1120,45)">
                    <g transform="matrix(-0.971698,0.0283019,-0.0283019,0.971698,1002.44,35.2934)">
                        <path d="M718.575,222.862C739.075,202.362 739.075,169.075 718.575,148.575C698.074,128.074 664.787,128.074 644.287,148.575C623.787,169.075 623.787,202.362 644.287,222.862C664.787,243.362 698.074,243.362 718.575,222.862Z"/>
                        <path d="M659.145,208.004C622.931,244.218 583.575,283.575 583.575,283.575" style="fill:none;stroke:black;stroke-width:70.04px;"/>
                    </g>
                </g>
                <g transform="matrix(-1.03,0.03,-0.03,1.03,1120,45)">
                    <g transform="matrix(-0.971698,0.0283019,-0.0283019,0.971698,1002.44,35.2934)">
                        <path d="M262.862,678.575C242.362,699.075 209.075,699.075 188.575,678.575C168.074,658.074 168.074,624.787 188.575,604.287C209.075,583.787 242.362,583.787 262.862,604.287C283.362,624.787 283.362,658.074 262.862,678.575Z"/>
                        <path d="M343.575,523.575C343.575,523.575 291.726,575.423 248.004,619.145" style="fill:none;stroke:black;stroke-width:70.04px;"/>
                    </g>
                </g>
            </g>
            <g transform="matrix(1,0,0,1,0,33)">
                <path d="M540,180C666.94,180 770,283.06 770,410C770,433.388 766.502,475.965 760,497.236C747.787,537.192 700.123,562.541 670,590C629.119,627.265 630.621,740 540,740C449.379,740 450.881,627.265 410,590C379.877,562.541 332.213,537.192 320,497.236C313.498,475.965 310,433.388 310,410C310,283.06 413.06,180 540,180ZM440,450C467.596,450 490,472.404 490,500C490,527.596 467.596,550 440,550C412.404,550 390,527.596 390,500C390,472.404 412.404,450 440,450ZM640,450C667.596,450 690,472.404 690,500C690,527.596 667.596,550 640,550C612.404,550 590,527.596 590,500C590,472.404 612.404,450 640,450Z"/>
            </g>
        </g>
    </g>
</svg>
