<?xml version="1.0" encoding="UTF-8" standalone="no"?><!DOCTYPE svg PUBLIC "-//W3C//DTD SVG 1.1//EN" "http://www.w3.org/Graphics/SVG/1.1/DTD/svg11.dtd"><svg width="100%" height="100%" viewBox="0 0 9375 9375" version="1.1" xmlns="http://www.w3.org/2000/svg" xmlns:xlink="http://www.w3.org/1999/xlink" xml:space="preserve" xmlns:serif="http://www.serif.com/" style="fill-rule:evenodd;clip-rule:evenodd;stroke-linejoin:round;stroke-miterlimit:2;"><g><path d="M9375,2605.5c0,-691.023 -274.508,-1353.74 -763.134,-1842.37c-488.627,-488.626 -1151.35,-763.134 -1842.37,-763.134l-4163.99,0c-691.023,-0 -1353.74,274.508 -1842.37,763.134c-488.626,488.627 -763.134,1151.35 -763.134,1842.37l0,4163.99c-0,691.023 274.508,1353.74 763.134,1842.37c488.627,488.626 1151.35,763.134 1842.37,763.134l4163.99,0c691.023,0 1353.74,-274.508 1842.37,-763.134c488.626,-488.627 763.134,-1151.35 763.134,-1842.37l0,-4163.99Z" style="fill:#1f1e27;"/><path id="path897" d="M3872.98,7029.69c-286.632,-33.773 -561.794,-96.635 -728.364,-166.397c-419.076,-175.512 -796.644,-480.471 -1019.42,-823.377c-122.77,-188.974 -157.581,-217.631 -328.655,-270.563c-256.023,-79.215 -427.225,-189.605 -515.456,-332.367c-139.3,-225.393 -62.053,-440.091 193.447,-537.668c132.936,-50.77 206.306,-56.071 418.232,-30.22c141.358,17.243 384.922,29.872 541.254,28.067c250.275,-2.888 328.817,-21.718 657.303,-157.55c330.642,-136.724 405.386,-154.492 657.304,-156.256c375.552,-2.629 503.568,64.689 1008.62,530.393c449.638,414.604 658.794,532.835 1190.3,672.847c576.287,151.811 803.363,317.8 803.363,587.247c-0,226.752 -261.79,381.418 -727.305,429.691c-156.915,16.272 -477.161,70.448 -711.659,120.394c-412.172,87.787 -1138.47,141.168 -1438.96,105.759Zm799.423,-401.767c215.41,-31.19 260.337,-7.668 -678.529,-355.192c-684.842,-253.492 -1105.54,-369.814 -1479.91,-409.184c-261.311,-27.482 -262.354,7.708 -7.547,254.512c312.272,302.46 652.653,440.438 1277.74,517.948c187.237,23.217 704.589,18.508 888.249,-8.084l0.005,-0Zm1293.83,-165.864c170.286,-50.568 193.195,-50.568 249.075,-0c81.213,73.498 109.237,70.257 109.237,-12.636c0,-96.293 -179.965,-264.856 -332.877,-311.787c-143.729,-44.111 -157.617,-30.154 -68.247,68.598c95.708,105.756 1.745,140.564 -327.24,121.235c-388.539,-22.827 -665.578,-117.247 -1474.49,-502.528c-381.058,-181.497 -780.769,-359.391 -888.248,-395.319c-220.033,-73.555 -699.922,-87.553 -1212.96,-35.382c-253.761,25.806 -326.5,21.462 -419.778,-25.072c-104.187,-51.976 -111.959,-51.764 -101.459,2.753c6.258,32.475 79.566,106.974 162.915,165.554c144.627,101.647 173.962,107.679 642.573,132.119c625.447,32.619 930.91,106.425 1746.2,421.909c1120.03,433.408 1473.42,501.779 1915.31,370.551l-0,0.005Zm969.66,-906.408c-400.236,-158.298 -674.907,-546.441 -736.704,-1041.05l-25.943,-207.641l-173.06,22.957c-95.182,12.627 -173.06,13.513 -173.06,1.972c-0,-37.95 296.765,-152.926 591.692,-229.241c622.649,-161.114 1421.36,-152.903 1971.85,20.27c163.143,51.322 328.601,111.408 367.683,133.526c62.641,35.45 52.118,42.347 -88.825,58.217l-159.885,18.002l-24.016,242.97c-42.248,427.439 -264.655,757.932 -640.569,951.88c-223.128,115.118 -655.419,128.5 -909.159,28.142l-0,-0.002Zm1038.46,-494.1c183.788,-89.74 292.925,-251.613 345.229,-512.053c34.319,-170.892 32.851,-211.115 -8.662,-237.399c-27.494,-17.405 -293.812,-31.891 -591.82,-32.19l-541.831,-0.551l-0,193.102c-0,310.022 109.774,508.232 337.534,609.461c151.319,67.254 292.941,60.975 459.555,-20.377l-0.005,0.007Zm-6197.64,-729.93c-164.166,-73.939 -343.946,-249.474 -435.607,-425.321c-113.277,-217.315 -127.019,-653.448 -30.592,-970.914c41.453,-136.474 75.37,-262.191 75.37,-279.372c-0,-17.18 -47.966,-59.57 -106.59,-94.2c-246.655,-145.702 -50.909,-156.279 373.064,-20.158c450.162,144.529 881.426,482.699 1170.92,918.163c233.559,351.322 236.4,399.032 11.589,194.507c-241.525,-219.725 -719.932,-582.98 -767.785,-582.98c-120.671,0 -153.727,589.606 -43.218,770.846c144.642,237.221 428.879,304.05 643.423,151.28c59.598,-42.437 118.36,-67.159 130.583,-54.937c35.181,35.181 -108.363,206.944 -266.341,318.7c-181.286,128.245 -553.734,164.949 -754.812,74.386l-0.005,-0Z" style="fill:#fff;fill-rule:nonzero;"/></g></svg>