<?xml version="1.0" encoding="UTF-8" standalone="no"?><!DOCTYPE svg PUBLIC "-//W3C//DTD SVG 1.1//EN" "http://www.w3.org/Graphics/SVG/1.1/DTD/svg11.dtd"><svg width="100%" height="100%" viewBox="0 0 2234 2234" version="1.1" xmlns="http://www.w3.org/2000/svg" xmlns:xlink="http://www.w3.org/1999/xlink" xml:space="preserve" xmlns:serif="http://www.serif.com/" style="fill-rule:evenodd;clip-rule:evenodd;stroke-linejoin:round;stroke-miterlimit:2;"><g id="Layer2"><path d="M1371.79,0c494.69,121.733 862.006,568.576 862.006,1100.53c-0,625.465 -507.798,1133.26 -1133.26,1133.26c-531.958,-0 -978.801,-367.316 -1100.53,-862.006c153.861,97.791 336.437,154.467 532.146,154.467c548.666,0 994.112,-445.446 994.112,-994.112c0,-195.709 -56.676,-378.285 -154.467,-532.146Z" style="fill:#130f00;"/><path d="M396.148,497.807c0.445,-4.793 3.828,-8.803 8.479,-10.049c4.65,-1.246 9.584,0.535 12.367,4.464c21.367,30.171 57.074,80.59 80.486,113.649c14.684,20.734 37.693,34.018 62.991,36.368c40.336,3.746 101.854,9.459 138.666,12.878c4.794,0.446 8.804,3.828 10.05,8.479c1.246,4.65 -0.535,9.585 -4.464,12.367c-30.171,21.367 -80.59,57.074 -113.649,80.486c-20.734,14.684 -34.019,37.693 -36.368,62.991c-3.746,40.336 -9.46,101.854 -12.879,138.666c-0.445,4.794 -3.828,8.804 -8.478,10.05c-4.651,1.246 -9.585,-0.535 -12.367,-4.464c-21.368,-30.171 -57.074,-80.59 -80.487,-113.649c-14.684,-20.734 -37.693,-34.018 -62.991,-36.368c-40.336,-3.746 -101.854,-9.46 -138.666,-12.879c-4.794,-0.445 -8.803,-3.828 -10.049,-8.478c-1.246,-4.65 0.535,-9.585 4.464,-12.367c30.171,-21.367 80.59,-57.074 113.649,-80.487c20.734,-14.683 34.018,-37.693 36.367,-62.991c3.747,-40.336 9.46,-101.853 12.879,-138.666Z" style="fill:#130f00;"/><path d="M1178.91,435.779c1.908,-3.182 5.596,-4.84 9.243,-4.155c3.647,0.686 6.481,3.569 7.104,7.227c3.486,20.472 8.6,50.509 12.706,74.624c4.264,25.047 19.258,46.981 41.048,60.047c20.979,12.581 47.11,28.251 64.92,38.93c3.182,1.909 4.84,5.597 4.155,9.243c-0.686,3.647 -3.569,6.482 -7.227,7.105c-20.472,3.485 -50.509,8.599 -74.624,12.705c-25.047,4.265 -46.981,19.259 -60.047,41.048c-12.581,20.98 -28.251,47.111 -38.93,64.92c-1.909,3.183 -5.597,4.84 -9.244,4.155c-3.646,-0.685 -6.481,-3.569 -7.104,-7.227c-3.485,-20.471 -8.6,-50.509 -12.706,-74.624c-4.264,-25.046 -19.258,-46.98 -41.047,-60.047c-20.98,-12.58 -47.111,-28.25 -64.92,-38.93c-3.183,-1.908 -4.841,-5.596 -4.155,-9.243c0.685,-3.647 3.569,-6.481 7.227,-7.104c20.471,-3.486 50.509,-8.6 74.624,-12.706c25.046,-4.264 46.98,-19.258 60.046,-41.048c12.581,-20.979 28.251,-47.111 38.931,-64.92Z" style="fill:#130f00;"/></g></svg>