<?xml version="1.0" encoding="UTF-8" standalone="no"?><!DOCTYPE svg PUBLIC "-//W3C//DTD SVG 1.1//EN" "http://www.w3.org/Graphics/SVG/1.1/DTD/svg11.dtd"><svg width="100%" height="100%" viewBox="0 0 1606 1978" version="1.1" xmlns="http://www.w3.org/2000/svg" xmlns:xlink="http://www.w3.org/1999/xlink" xml:space="preserve" xmlns:serif="http://www.serif.com/" style="fill-rule:evenodd;clip-rule:evenodd;stroke-linecap:round;stroke-linejoin:round;stroke-miterlimit:1.5;"><g id="Layer1"><path d="M1403.75,464.825l-1202.29,0l0,1172.06c0,133.881 108.533,242.414 242.414,242.414c208.807,-0 508.658,-0 717.464,-0c133.882,-0 242.414,-108.533 242.414,-242.414c0,-404.222 0,-1172.06 0,-1172.06Z" style="fill:none;stroke:#fef9ec;stroke-width:195.54px;"/><path d="M1507.43,448.774c-0,-20.158 -16.342,-36.5 -36.5,-36.5c-197.732,-0 -1138.93,-0 -1336.66,-0c-20.158,-0 -36.5,16.342 -36.5,36.5c0,0.003 0,0.007 0,0.01c0,20.159 16.342,36.5 36.5,36.5c197.732,0 1138.93,0 1336.66,0c20.158,0 36.5,-16.341 36.5,-36.5c0,-0.003 0,-0.007 0,-0.01Z" style="fill:none;stroke:#fef9ec;stroke-width:195.54px;"/><path d="M995.631,226.66c-0,-34.184 -13.579,-66.966 -37.751,-91.138c-24.171,-24.171 -56.954,-37.75 -91.137,-37.75c-41.288,0 -86.994,0 -128.282,0c-34.183,0 -66.966,13.579 -91.137,37.75c-24.171,24.172 -37.75,56.954 -37.75,91.138c-0,84.724 -0,180.002 -0,180.002l386.057,-0l-0,-180.002Z" style="fill:none;stroke:#fef9ec;stroke-width:195.54px;"/><path d="M802.602,1509.29l0,-653.883" style="fill:none;stroke:#fef9ec;stroke-width:217px;"/><path d="M1102.6,1445.1l0,-505.455" style="fill:none;stroke:#fef9ec;stroke-width:217px;"/><path d="M502.602,1445.1l0,-505.455" style="fill:none;stroke:#fef9ec;stroke-width:217px;"/></g></svg>