<?xml version="1.0" encoding="UTF-8" standalone="no"?><!DOCTYPE svg PUBLIC "-//W3C//DTD SVG 1.1//EN" "http://www.w3.org/Graphics/SVG/1.1/DTD/svg11.dtd"><svg width="100%" height="100%" viewBox="0 0 2279 2279" version="1.1" xmlns="http://www.w3.org/2000/svg" xmlns:xlink="http://www.w3.org/1999/xlink" xml:space="preserve" xmlns:serif="http://www.serif.com/" style="fill-rule:evenodd;clip-rule:evenodd;stroke-linejoin:round;stroke-miterlimit:2;"><path d="M1139.35,0c628.825,0 1139.35,510.526 1139.35,1139.35c0,628.825 -510.526,1139.35 -1139.35,1139.35c-628.825,0 -1139.35,-510.526 -1139.35,-1139.35c0,-628.825 510.526,-1139.35 1139.35,-1139.35Zm30.898,1544.97c90.001,0 163.071,73.07 163.071,163.071c-0,90.002 -73.07,163.072 -163.071,163.072c-90.002,-0 -163.071,-73.07 -163.071,-163.072c-0,-90.001 73.069,-163.071 163.071,-163.071Zm138.788,-235.152l0.403,-23.936l2.265,-107.091c7.752,-4.624 23.311,-13.652 33.525,-18.454c29.436,-13.84 60.344,-27.479 89.191,-44.497c92.006,-54.278 170.528,-133.51 170.528,-306.487c-0,-269.53 -227.923,-406.387 -468.344,-401.653c-239.759,4.722 -462.852,156.2 -462.852,392.193c0,76.967 62.488,139.455 139.456,139.455c76.967,0 139.455,-62.488 139.455,-139.455c0,-31.378 18.427,-54.347 42.336,-71.052c39.975,-27.93 93.797,-41.234 147.097,-42.284c86.18,-1.697 183.941,26.181 183.941,122.796c-0,52.049 -32.326,66.976 -61.216,80.773c-35.967,17.177 -72.014,32.793 -102.548,52.389c-74.348,47.712 -126.715,112.496 -129.334,226.475c-2.914,126.767 -2.952,154.963 -2.795,158.47c4.205,93.641 69.343,114.912 75.217,117.955c44.935,23.274 90.407,23.2 136.195,-4.43c12.557,-7.577 50.659,-29.208 64.047,-88.951c0.707,-3.156 3.53,-29.365 3.53,-29.365c0.174,-4.322 0.148,-8.607 -0.097,-12.851Z" style="fill:#140f00;"/></svg>