<?xml version="1.0" encoding="UTF-8" standalone="no"?><!DOCTYPE svg PUBLIC "-//W3C//DTD SVG 1.1//EN" "http://www.w3.org/Graphics/SVG/1.1/DTD/svg11.dtd"><svg width="100%" height="100%" viewBox="0 0 2279 2279" version="1.1" xmlns="http://www.w3.org/2000/svg" xmlns:xlink="http://www.w3.org/1999/xlink" xml:space="preserve" xmlns:serif="http://www.serif.com/" style="fill-rule:evenodd;clip-rule:evenodd;stroke-linejoin:round;stroke-miterlimit:2;"><path d="M1139.35,0c628.825,0 1139.35,510.526 1139.35,1139.35c0,628.825 -510.526,1139.35 -1139.35,1139.35c-628.825,0 -1139.35,-510.526 -1139.35,-1139.35c0,-628.825 510.526,-1139.35 1139.35,-1139.35Zm304.465,1344.74c17.445,14.83 33.57,31.73 48.374,50.698c29.811,38.195 44.716,86.172 44.716,143.93c0,60.553 -14.905,114.818 -44.716,162.795c-29.811,47.977 -73.13,85.473 -129.957,112.489c-56.826,27.016 -124.366,40.524 -202.62,40.524c-118.311,0 -215.895,-27.715 -292.751,-83.144c-60.75,-43.813 -99.527,-103.778 -116.333,-179.894c-3.555,-15.466 0.132,-31.709 10.017,-44.124c9.884,-12.415 24.888,-19.648 40.758,-19.648c65.599,-0.177 169.502,-0.177 227.512,-0.177c22.534,0.001 42.532,14.441 49.62,35.831c10.976,32.942 33.849,49.409 68.601,49.409c16.768,0 30.975,-3.959 42.62,-11.878c11.645,-7.918 17.467,-20.262 17.467,-37.03c0,-23.29 -12.576,-42.155 -37.729,-56.594c-25.153,-14.44 -64.28,-30.975 -117.38,-49.607c-63.348,-22.358 -115.75,-44.251 -157.206,-65.677c-41.455,-21.427 -77.089,-52.635 -106.899,-93.625c-29.811,-40.99 -44.251,-93.624 -43.319,-157.904c-0,-64.279 16.535,-119.01 49.607,-164.192c11.476,-15.678 24.41,-30.038 38.797,-43.076c-16.271,-14.765 -31.301,-31.628 -45.085,-50.581c-29.811,-40.99 -44.251,-93.625 -43.319,-157.905c-0,-64.279 16.535,-119.01 49.607,-164.192c33.071,-45.182 78.253,-79.418 135.546,-102.707c57.293,-23.29 121.805,-34.935 193.537,-34.935c121.107,-0 217.293,27.948 288.56,83.843c55.772,43.743 90.863,101.466 105.27,173.166c3.228,15.365 -0.643,31.366 -10.538,43.556c-9.894,12.19 -24.758,19.269 -40.458,19.269c-66.216,0.166 -172.825,0.166 -232.226,0.166c-22.296,-0 -42.139,-14.143 -49.413,-35.219c-3.321,-10.404 -8.409,-18.672 -15.081,-24.868c-13.042,-12.111 -28.879,-18.166 -47.511,-18.166c-13.042,0 -23.756,4.425 -32.14,13.275c-8.384,8.85 -12.576,21.194 -12.576,37.031c-0,22.358 12.343,40.757 37.03,55.196c24.687,14.44 64.047,31.907 118.079,52.402c62.416,23.29 113.887,45.648 154.411,67.074c40.524,21.427 75.691,51.238 105.502,89.433c29.811,38.195 44.716,86.172 44.716,143.93c0,60.553 -14.905,114.818 -44.716,162.795c-13.397,21.561 -29.522,41.005 -48.374,58.331Zm-349.835,-168.325c-10.33,-12.23 -16.813,-26.684 -16.813,-45.082c-0,-15.837 4.192,-28.181 12.576,-37.031c8.384,-8.85 19.098,-13.275 32.14,-13.275c14.918,-0 36.084,4.847 50.623,12.997c2.878,1.769 5.576,3.601 8.094,5.496c0.461,0.388 0.906,0.78 1.333,1.177c0.264,0.245 0.656,0.504 1.169,0.773c16.014,12.949 24.021,28.714 24.021,47.297c0,16.769 -5.822,29.112 -17.467,37.031c-11.645,7.918 -25.852,11.877 -42.62,11.877c-22.797,0 -40.482,-7.086 -53.056,-21.26Z" style="fill:#130f00;"/></svg>