<?xml version="1.0" encoding="UTF-8" standalone="no"?><!DOCTYPE svg PUBLIC "-//W3C//DTD SVG 1.1//EN" "http://www.w3.org/Graphics/SVG/1.1/DTD/svg11.dtd"><svg width="100%" height="100%" viewBox="0 0 3125 3125" version="1.1" xmlns="http://www.w3.org/2000/svg" xmlns:xlink="http://www.w3.org/1999/xlink" xml:space="preserve" xmlns:serif="http://www.serif.com/" style="fill-rule:evenodd;clip-rule:evenodd;stroke-linecap:round;stroke-linejoin:round;stroke-miterlimit:1.5;"><g><path d="M898.588,2134.15l361.04,-44.127l-8.023,-942.715c-174.979,300.294 -285.016,633.06 -353.017,986.842Z"/><path d="M849.984,2190.7c-0,0 1177.27,-96.048 1396.49,-172.887c-69.013,220.911 -218.42,404.378 -450.61,432.217c-806.168,96.658 -890.926,-47.992 -945.876,-259.33Z"/><path d="M1308.23,2174.26c47.385,-464.86 46.218,-941.858 8.023,-1428.11" style="fill:none;stroke:#000;stroke-width:61.22px;"/><path d="M1388,806.322c72.208,332.959 80.231,1059.05 -4.011,1283.7c228.658,-128.369 505.456,-232.67 862.484,-136.393c-8.023,-553.594 -517.491,-958.761 -858.473,-1147.3Z"/></g></svg>