<?xml version="1.0" encoding="UTF-8" standalone="no"?><!DOCTYPE svg PUBLIC "-//W3C//DTD SVG 1.1//EN" "http://www.w3.org/Graphics/SVG/1.1/DTD/svg11.dtd"><svg width="100%" height="100%" viewBox="0 0 3125 3125" version="1.1" xmlns="http://www.w3.org/2000/svg" xmlns:xlink="http://www.w3.org/1999/xlink" xml:space="preserve" xmlns:serif="http://www.serif.com/" style="fill-rule:evenodd;clip-rule:evenodd;stroke-linejoin:round;stroke-miterlimit:2;"><g><path d="M1508.62,546.109c628.04,-0 1137.93,509.889 1137.93,1137.93c0,628.04 -509.889,1137.93 -1137.93,1137.93c-628.04,0 -1137.93,-509.889 -1137.93,-1137.93c-0,-628.04 509.889,-1137.93 1137.93,-1137.93Zm-200.244,1602.93c-254.165,24.996 -458.389,41.658 -458.389,41.658c54.95,211.338 139.708,355.988 945.876,259.33c232.19,-27.839 381.597,-211.306 450.61,-432.217c-127.628,44.736 -579.994,95.982 -935.693,130.993c21.977,-224.165 32.733,-451.129 33.559,-680.575c0.857,-238.139 -8.984,-478.953 -28.081,-722.08l-7.882,1402.89Zm-409.785,-14.894l361.04,-44.127l-8.023,-942.715c-174.979,300.294 -285.016,633.06 -353.017,986.842Zm489.409,-1327.82c72.208,332.959 80.231,1059.05 -4.011,1283.7c228.658,-128.369 505.456,-232.67 862.484,-136.393c-8.023,-553.594 -517.491,-958.761 -858.473,-1147.3Z" style="fill:#fef9ec;"/></g></svg>