<?xml version="1.0" encoding="UTF-8" standalone="no"?><!DOCTYPE svg PUBLIC "-//W3C//DTD SVG 1.1//EN" "http://www.w3.org/Graphics/SVG/1.1/DTD/svg11.dtd"><svg width="100%" height="100%" viewBox="0 0 3000 3000" version="1.1" xmlns="http://www.w3.org/2000/svg" xmlns:xlink="http://www.w3.org/1999/xlink" xml:space="preserve" xmlns:serif="http://www.serif.com/" style="fill-rule:evenodd;clip-rule:evenodd;stroke-linejoin:round;stroke-miterlimit:2;"><g><g><path d="M2470.18,2792.44c-5.528,-7.995 -4.806,-12.772 34.25,-226.857l39.897,-218.691l10.189,-6.584c9.131,-5.902 14.429,-6.032 51.077,-1.253c64.254,8.378 72.739,14.248 73.628,50.94c0.262,10.781 2.073,19.892 4.025,20.249c1.953,0.356 8.457,-2.916 14.455,-7.27c28.63,-20.787 57.15,-31.939 91.859,-35.919c22.738,-2.607 82.351,8.279 106.288,19.404c52.673,24.493 89.728,72.567 98.811,128.197c6.459,39.555 4.722,55.302 -22.862,207.2l-27.021,148.78l-9.363,6.051c-8.972,5.798 -12.259,5.522 -78.821,-6.621l-69.458,-12.672l-5.498,-10.405c-5.327,-10.083 -4.803,-14.214 16.922,-133.403c13.077,-71.74 21.923,-128.467 21.228,-136.124c-5.748,-63.344 -87.659,-88.626 -127.592,-39.382c-6.947,8.567 -11.03,25.761 -34.089,143.547l-26.196,133.815l-9.356,5.11c-8.509,4.647 -15.578,3.975 -78.043,-7.421c-64.081,-11.691 -69.064,-13.079 -74.332,-20.698l0.002,0.007Z" style="fill:#fff;"/><path d="M2256,2764.18c-3.883,-8.316 -1.354,-32.168 21.391,-201.738c29.057,-216.633 32.633,-234.927 48.432,-247.68c11.903,-9.608 15.618,-9.473 101.34,3.692c37.01,5.685 42.613,7.373 48.434,14.608l6.583,8.181l-64.025,444.07l-8.502,4.295c-7.015,3.545 -20.805,2.522 -78.875,-5.85l-70.374,-10.147l-4.404,-9.431Z" style="fill:#fff;"/><path d="M2036.28,2745.91c-6.409,-9.789 -6.294,-11.59 20.016,-313.965c24.351,-279.864 27.004,-304.881 33.277,-313.66c9.935,-13.905 22.106,-15.46 80.888,-10.33c46.208,4.032 54.135,5.584 63.412,12.409c21.975,16.168 22.324,-1.498 -6.533,330.15c-25.988,298.673 -26.187,300.513 -34.193,309.045l-8.05,8.584l-142.37,-12.387l-6.447,-9.846Z" style="fill:#fff;"/><path d="M1541.33,2121.2c57.257,5.275 115.842,5.898 169.225,1.455c0.564,19.928 -0.057,56.446 -1.303,127.458c-1.411,80.335 -1.22,148.271 0.422,150.969c2.154,3.54 6.635,4.288 16.099,2.687c16.709,-2.826 40.32,-25.684 65.346,-62.287c11.125,-2.795 24.031,-6.545 38.801,-11.388c13.065,-4.285 26.888,-8.575 36.87,-11.62c2.648,3.111 5.537,6.61 8.053,9.895c13.228,17.27 32.209,35.455 41.56,41.031c0,0 0,0 0,0.001c22.205,13.241 39.934,10.987 52.527,3.1c7.862,-4.924 15.17,-13.097 19.724,-26.315c2.909,-8.444 4.893,-20.242 5.445,-35.61c3.583,0.639 7.35,1.326 11.163,2.045c-1.392,10.035 -4.905,20.365 -10.329,29.309c-18.768,30.948 -77.122,103.657 -99.608,124.114c-6.114,5.562 -11.164,12.77 -11.222,16.018c-0.103,5.742 72.434,111.77 100.628,147.09c13.539,16.96 14.023,18.48 13.59,42.675c-0.393,21.923 -1.758,26.905 -10.81,39.482c-16.446,22.845 -39.668,31.509 -82.394,30.741c-27.991,-0.504 -37.221,-2.06 -49.302,-8.312l0,0c-17.552,-9.083 -27.158,-20.613 -52.201,-62.656c-10.236,-17.184 -28.201,-46.786 -39.921,-65.781l-21.311,-34.537l-37.504,18.484l-2.896,63.667c-2.557,56.204 -3.696,64.518 -9.715,70.923c-6.501,6.919 -10.133,7.198 -77.972,5.982l-71.153,-1.274l-7.109,-9.379c-7.068,-9.324 -7.077,-11.136 -1.65,-314.034c2.415,-134.834 4.93,-236.435 6.947,-283.933Z" style="fill:#fff;"/><path d="M1434.86,2263.4c21.345,12.546 38.403,27.288 49.641,43.339c14.963,21.371 8.506,35.559 -37.655,82.746c-32.723,33.451 -33.981,34.323 -49.5,34.317c-13.607,-0.007 -18.206,-2.044 -31.594,-14.006c-24.519,-21.906 -46.632,-31.635 -71.901,-31.635c-41.702,-0 -70.46,16.643 -86.951,50.321c-12.68,25.895 -13.659,70.838 -2.08,95.471c9.14,19.445 33.105,41.134 51.558,46.663c30.961,9.276 86.046,0.477 99.528,-15.897c11.299,-13.725 32.338,-25.61 45.335,-25.61c14.638,-0 25.056,7.178 53.441,36.824c24.636,25.73 37.572,45.47 37.572,57.332c0,19.629 -39.93,56.66 -84.24,78.123c-24.468,11.853 -39.213,16.172 -77.239,22.627c-34.737,5.896 -59.304,5.899 -91.767,0.011l0,0c-39.127,-7.097 -72.834,-19.73 -100.054,-37.5c-73.333,-47.873 -109.647,-116.329 -109.95,-207.268c-0.175,-52.669 7.56,-86.867 28.559,-126.267c16.25,-30.488 40.703,-57.215 70.833,-78.289c2.155,13.126 10.524,26.305 30.974,30.337c1.9,0.375 3.833,0.564 5.77,0.564l0.001,-0c-1.938,-0 -3.871,-0.189 -5.772,-0.564c8.652,1.706 16.937,2.152 63.811,-2.26c11.982,-1.128 48.091,-8.29 80.208,-16.089c29.372,-7.133 73.199,-15.354 97.397,-18.241c11.833,-1.412 23.722,-3.218 34.075,-5.049Zm-269.719,42.203c15.35,-0 15.35,-0 -0,-0l-0,-0Z" style="fill:#fff;"/><path d="M701.17,2759.13c-50.2,-5.778 -99.187,-34.654 -123.314,-72.691c-26.715,-42.114 -29.941,-57.288 -44.78,-210.677c-13.907,-143.747 -13.958,-141.161 2.952,-149.551c9.247,-4.587 104.279,-14.88 121.452,-13.154c21.479,2.159 21.693,2.998 35.272,138.696c13.348,133.379 13.487,133.988 34.569,150.485c13.623,10.661 25.306,13.267 49.084,10.948c26.813,-2.614 45.068,-16.133 54.074,-40.043c6.149,-16.326 6.103,-17.843 -4.233,-140.409c-9.561,-113.373 -10.005,-124.444 -5.227,-130.247c4.673,-5.674 12.226,-7.024 71.767,-12.831c-0,0 36.643,-3.56 61.023,-5.929c5.638,-0.547 11.263,1.167 15.637,4.767c4.374,3.6 7.138,8.791 7.685,14.429c5.314,54.813 19.067,196.664 19.067,196.664c11.21,115.022 16.24,171.182 18.477,197.813c0.771,12.654 -8.554,23.674 -21.162,25.008c-19.15,2.029 -43.348,4.589 -43.348,4.589c-62.918,6.136 -62.279,6.366 -69.786,-25.142c-2.188,-9.18 -5.081,-17.233 -6.43,-17.895c-1.35,-0.663 -10.678,8.246 -20.729,19.797c-21.584,24.804 -41.965,38.07 -73.715,47.979c-27.796,8.675 -49.448,10.719 -78.336,7.394l0.001,-0Z" style="fill:#fff;"/><path d="M98.178,2842.39c-19.273,-7.885 -14.996,10.807 -57.137,-249.692c0,0 -28.585,-176.675 -37.948,-234.541c-1.621,-10.019 5.15,-19.468 15.159,-21.154c32.968,-5.551 99.468,-16.749 99.468,-16.749c66.871,-11.393 109.717,-17.533 123.354,-17.676c123.21,-1.295 209.727,54.291 250.646,161.037c8.63,22.513 19.645,86.254 18.735,108.411c-2.514,61.2 -16.453,103.415 -48.501,146.89c-18.801,25.505 -43.615,47.365 -70.873,62.437c-15.526,8.584 -23.098,11.82 -59.58,25.459c-8.472,3.167 -55.617,11.965 -119.187,22.243c-97.214,15.718 -105.85,16.726 -114.137,13.335l0.001,0Zm210.884,-176.387c39.256,-27.898 53.663,-72.921 41.632,-130.101c-5.295,-25.166 -7.434,-30.58 -18.653,-47.213c-27.782,-41.189 -68.574,-54.456 -130.515,-42.45l-27.057,5.245l18.202,117.051c16.965,109.095 18.568,117.245 23.585,119.92c4.084,2.178 13.991,1.199 41.024,-4.054c33.43,-6.496 36.641,-7.637 51.782,-18.397l0,-0.001Z" style="fill:#fff;"/><g><path d="M1013.12,2311.07c-0.381,-74.642 14.45,-119.561 52.225,-158.166c32.835,-33.556 65.192,-43.837 82.739,-26.29c16.504,16.503 -1.368,66.528 -15.775,79.747l-23.461,7.851l15.941,5.805c-0,-0 -5.431,9.194 -19.561,22.298c-12.67,11.751 -31.152,33.212 -41.071,47.693l-22.943,31.04c0,-0 4.668,-40.66 16.213,-76.571c4.248,-13.212 11.019,-27.259 11.019,-27.259c-0,0 -2.138,1.574 -5.779,5.52c-21.868,23.696 -47.629,126.265 -47.629,126.265c0,0 -1.779,-10.653 -1.919,-37.933l0.001,0Z" style="fill:#fff;"/><path d="M986.811,2213.38c-4.212,-6.816 -6.487,-35.327 -4.093,-51.291c2.722,-18.156 13.988,-28.765 26.37,-24.835c7.692,2.441 8.742,15.226 5.784,24.971c-1.747,5.757 -7.214,12.845 -10.397,20.716c-2.941,7.274 -3.974,12.863 -5.461,16.982c-5.7,15.784 -9.609,17.653 -12.203,13.457Z" style="fill:#fff;"/></g><g><path d="M2308.84,2243.23c36.118,-77.833 73.521,-117.306 131.702,-138.986c50.571,-18.844 89.261,-13.711 98.931,13.127c9.095,25.241 -33.968,68.538 -55.422,75.241l-28.247,-3.31l13.744,13.836c-0,0 -10.148,6.908 -31.257,13.628c-18.928,6.025 -48.653,19.31 -66.055,29.521l-39.051,21.066c-0,0 24.746,-40.014 54.323,-71.723c10.882,-11.666 24.797,-22.966 24.797,-22.966c0,0 -2.993,0.592 -8.712,2.916c-34.339,13.952 -111.314,108.049 -111.314,108.049c0,0 3.361,-11.953 16.561,-40.399l-0,0Z" style="fill:#fff;"/><path d="M2317.19,2147.21c-4.346,-11.058 1.479,-47.331 10.441,-65.016c20.635,-40.721 61.711,-54.049 61.711,-20.024c-0,8.76 -5.177,15.808 -28.364,38.623c-15.601,15.35 -31.269,33.513 -34.819,40.362c-5.48,10.574 -6.833,11.488 -8.969,6.055Z" style="fill:#fff;"/></g></g><g><path id="path897" d="M2039.14,2289.04c-3.905,-0.787 -7.97,-1.626 -12.192,-2.515c-30.949,-6.521 -57.673,-10.989 -59.388,-9.929c-1.715,1.06 -3.119,12.245 -3.119,24.857c0,43.221 -9.873,55.981 -32.756,42.336c-7.553,-4.504 -22.474,-19.602 -33.158,-33.551c-10.684,-13.949 -20.999,-25.361 -22.923,-25.361c-1.924,-0 -26.663,7.596 -54.974,16.88c-55.342,18.149 -79.015,21.359 -79.015,10.717c0,-8.368 9.319,-16.36 48.955,-41.989c40.611,-26.26 67.234,-46.977 74.375,-57.875c4.843,-7.391 4.715,-9.638 -1.569,-27.517c-3.763,-10.708 -16.747,-37.383 -28.852,-59.278c-12.105,-21.895 -22.009,-41.658 -22.009,-41.658c27.51,-0.714 50.311,-5.756 68.888,-14.679c0,0 4.168,10.129 8.555,21.27c12.849,32.629 37.081,81.337 47.882,96.247c8.726,12.046 18.461,17.876 76.538,45.835c10.843,5.22 20.302,9.778 28.586,13.783c-1.171,12.82 -2.441,26.915 -3.824,42.427Zm-863.452,-98.964c16.053,-2.505 36.548,-4.945 54.44,-6.351c89.61,-7.044 113.313,-9.347 115.153,-11.187c0.991,-0.992 -4.408,-23.446 -11.997,-49.899c-7.59,-26.453 -12.716,-49.18 -12.716,-49.18c-0,-0 12.026,4.427 26.221,8.83c20.372,6.32 33.464,9.387 33.464,9.387c-0,0 0.788,-24.949 0.622,-28.706l-42.739,-14.824c-109.702,-35.925 -216.307,-104.506 -271.635,-174.748c-65.774,-83.505 -94.577,-168.051 -94.628,-277.765c-0.017,-36.86 8.133,-105.2 15.264,-127.997c1.163,-3.719 -8.146,-11.904 -31.52,-27.716c-105.721,-71.517 -192.527,-169.628 -245.625,-277.614c-41.615,-84.633 -59.884,-156.232 -60.299,-236.33c-0.26,-50.06 -0.141,-50.895 10.308,-72.587c12.951,-26.889 36.915,-53.874 78.259,-88.126c41.573,-34.442 71.658,-50.297 95.443,-50.297c33.489,0 60.065,20.422 78.578,60.382c7.069,15.257 10.807,19.068 25.276,25.771c40.637,18.828 51.953,73.22 28.044,134.794l-9.921,25.55l8.93,13.114c15.057,22.109 73.217,80.678 76.678,77.218c0.87,-0.869 -2.932,-11.304 -8.448,-23.186c-18.697,-40.278 -27.815,-78.551 -28.069,-117.826c-0.348,-53.694 10.874,-87.635 46.873,-141.773c11.882,-17.869 18.917,-35.096 33.239,-81.401c29.085,-94.035 56.884,-154.898 99.795,-218.49c66.212,-98.125 158.975,-167.85 271.653,-204.188c50.006,-16.127 88.848,-23.002 144.374,-25.554l46.466,-2.136l-12.454,-18.569c-15.383,-22.936 -45.267,-52.658 -66.314,-65.956c-8.712,-5.504 -15.843,-11.104 -15.846,-12.445c-0.014,-6.047 40.388,-14.06 70.893,-14.06c52.178,-0 95.925,16.6 142.196,53.957c14.731,11.893 27.201,21.623 27.711,21.623c1.962,0 -4.523,-55.163 -8.006,-68.094c-2.016,-7.488 -2.908,-14.373 -1.982,-15.299c2.163,-2.162 23.886,4.861 39.855,12.885c17.751,8.92 51.851,41.534 67.46,64.519c15.7,23.119 29.135,53.678 41.492,94.381c9.758,32.138 8.723,30.908 58.935,70.042c116.839,91.063 189.56,236.198 206.503,412.136c4.946,51.352 2.27,152.529 -5.342,201.968c-14.332,93.1 -50.062,167.033 -109.665,226.926c-23.719,23.834 -78.681,64.057 -94.306,69.016c-3.839,1.219 -6.955,3.252 -6.926,4.52c0.027,1.267 17.881,10.947 39.67,21.51c120.574,58.451 203.36,146.163 203.36,215.459c0,31.761 -20.654,79.223 -52.097,119.715c-8.471,10.909 -14.766,20.471 -13.988,21.249c2.783,2.783 49.56,-6.136 75.306,-14.358c14.426,-4.607 28.128,-8.396 30.449,-8.42c5.679,-0.063 5.381,16.046 -0.97,52.47c-28.077,161.006 -152.14,293.528 -341.525,364.812c-10.429,3.926 -18.964,6.836 -18.964,6.836c0,-0 3.621,-8.858 14.56,-21.388c8.102,-9.28 21.897,-18.355 43.89,-28.872c126.194,-60.344 222.353,-163.082 267.799,-286.121c11.28,-30.541 18.31,-57.394 15.025,-57.394c-0.838,-0 -13.404,3.038 -27.925,6.752c-16.125,4.124 -37.69,6.781 -55.402,6.827c-23.46,0.064 -30.615,1.326 -37.442,6.617l-8.441,6.542l15.778,14.554c8.678,8.004 16.822,18.71 18.097,23.79c8.287,33.017 -23.288,61.953 -86.205,79c-34.59,9.372 -101.566,7.975 -137.279,-2.864c-35.713,-10.838 -61.26,-26.475 -85.559,-52.368c-43.034,-45.856 -45.146,-98.675 -6.586,-164.661l13.454,-23.024l-17.053,-18.031c-15.761,-16.665 -33.582,-47.464 -33.66,-58.171c-0.013,-2.498 9.463,5.267 21.068,17.256c11.606,11.989 29.736,27.308 40.29,34.043c10.555,6.736 20.153,13.804 21.33,15.708c1.176,1.905 -5.021,14.233 -13.772,27.396c-20.704,31.143 -25.908,56.983 -18.655,94.925c11.879,62.134 113.975,115.397 196.663,108.698c47.341,-3.836 87.282,-25.324 87.282,-43.337c0,-15.405 -43.1,-45.14 -59.473,-41.03c-11.527,2.893 -9.893,-1.886 3.844,-11.241c19.067,-12.986 63.241,-58.094 80.297,-81.996c37.97,-53.21 46.256,-90.538 28.558,-128.655c-29.222,-62.938 -111.979,-127.577 -223.721,-174.745l-33.762,-14.251l-25.321,3.843c-13.927,2.114 -33.677,3.738 -43.89,3.61l-18.569,-0.234l37.138,-12.85c75.584,-36.45 108.7,-57.822 160.963,-111.59c46.514,-47.853 79.861,-102.574 101.943,-199.632c11.097,-48.772 21.858,-122.108 15.269,-183.698c-8.175,-76.422 -22.61,-148.49 -67.154,-239.625c-33.397,-68.33 -69.005,-108.973 -126.586,-173.846c-30.207,-34.032 -41.318,-38.56 -57.486,-84.43c-17.686,-50.176 -33.817,-79.22 -58.588,-105.486c-11.83,-12.544 -22.795,-22.808 -24.366,-22.808c-1.572,0 -1.926,19.472 -0.788,43.271c1.138,23.799 0.95,49.241 -0.42,56.538l-2.489,13.268l-10.639,-13.493c-20.469,-25.957 -44.62,-49.879 -65.225,-64.606c-39.033,-27.899 -92.021,-46.543 -126.256,-44.425l-16.28,1.007l21.655,17.692c25.784,21.067 48.566,49.046 62.566,76.84l10.204,20.257l-63.465,2.069c-71.704,2.338 -107.787,18.048 -164.651,37.721c-70.676,24.452 -126.37,60.06 -180.445,114.052c-39.729,39.668 -73.129,82.977 -101.893,138.648c-26.24,50.783 -44.73,79.116 -64.831,145.49c-11.738,38.76 -18.672,55.274 -31.86,75.874c-35.631,55.654 -44.776,82.444 -44.776,131.16c-0,54.407 17.277,103.664 58.323,166.275c11.807,18.012 29.75,41.864 39.873,53.006c30.258,33.304 30.783,34.719 8.152,22.007c-93.364,-52.444 -154.518,-100.821 -194.665,-153.996c-7.579,-10.038 -14.603,-18.25 -15.61,-18.25c-1.007,0 -9.238,4.753 -18.292,10.563c-9.053,5.809 -17.089,9.933 -17.859,9.164c-0.769,-0.769 5.168,-9.7 13.194,-19.847c44.384,-56.116 55.525,-121.035 26.196,-152.651c-15.601,-16.818 -42.981,-8.872 -77.34,22.445c-15.284,13.932 -17.981,18.134 -17.122,26.676c1.702,16.9 15.467,24.31 45.159,24.31c13.79,0 24.628,1.335 24.085,2.965c-0.954,2.862 -11.279,8.674 -36.15,20.35c-6.499,3.051 -15.614,11.099 -20.256,17.884c-7.22,10.552 -8.441,16.13 -8.441,38.552c0,25.308 -0.402,26.63 -11.635,38.223c-15.201,15.69 -18.834,15.213 -10.378,-1.362c8.552,-16.763 8.557,-24.008 0.03,-40.721c-6.533,-12.807 -7.399,-13.295 -22.976,-12.944c-25.897,0.583 -43.33,-11.523 -57.633,-40.023c-11.623,-23.16 -8.375,-23.498 14.519,-1.514c17.371,16.68 23.802,20.792 32.519,20.792c22.283,0 42.921,-20.618 39.432,-39.395c-0.977,-5.257 -3.392,-18.447 -5.366,-29.311c-3.23,-17.769 -7.455,-26.617 -28.622,-59.928c-10.036,-15.796 -0.273,-11.628 21.573,9.209l19.917,18.998l11.772,-10.336c6.474,-5.685 18.669,-14.378 27.099,-19.318c8.429,-4.941 15.312,-10.737 15.295,-12.882c-0.066,-8.205 -20.625,-39.31 -31.427,-47.549c-23.522,-17.941 -43.312,-14.853 -79.407,12.393c-56.24,42.452 -93.137,81.756 -101.747,108.386c-6.269,19.391 -4.811,79.595 2.888,119.211c28.968,149.066 128.96,303.159 257.517,396.845c47.04,34.279 60.245,41.4 60.245,32.486c0,-10.838 46.199,-96.418 69.398,-128.555c14.419,-19.974 27.58,-34.952 27.58,-34.952c0,0 -13.23,19.867 -23.421,53.858c-32.023,106.807 -40.218,213.136 -24.082,319.147c18.711,122.934 70.868,206.367 176.483,285.224c82.185,61.363 145.472,96.006 292.879,128.117c40.867,8.902 146.336,24.276 179.66,20.095c22.963,-2.88 27.093,-2.39 51.753,6.15c14.74,5.103 30.175,11.098 30.175,11.098c-0,0 -23.857,3.948 -52.644,7.241c-97.539,11.158 -217.647,3.487 -313.563,-20.026c-17.307,-4.243 -21.361,-4.328 -21.361,-4.328c0,-0 1.579,65.518 6.8,85.252c6.78,25.627 11.322,31.901 28.559,39.448c35.449,15.522 44.007,29.379 23.345,37.801c-6.035,2.459 -31.483,6.919 -56.551,9.91c-25.068,2.99 -70.474,11.483 -100.902,18.873c-30.429,7.389 -64.612,14.31 -75.964,15.378c-40.604,3.822 -47.75,4.17 -55.244,2.692l-0,0c-11.165,-2.201 -9.431,-12.853 3.376,-20.733c6.035,-3.714 29.96,-14.546 53.168,-24.072c41.291,-16.948 58.175,-26.263 40.52,-22.356c-20.134,4.456 -81.59,12.108 -96.654,12.034c-1.968,-0.009 -4.031,-0.076 -6.144,-0.195c5.799,-7.794 11.686,-18.573 16.284,-30.378Zm1094.3,-877.731c-25.677,-17.345 -52.374,-30.977 -75.512,-38.558c-21.156,-6.931 -19.101,-9.512 12.287,-15.434c43.189,-8.149 85.025,3.028 101.207,27.038c13.03,19.335 7.587,40.674 -10.37,40.648c-4.045,-0.007 -16.471,-6.168 -27.612,-13.694Zm-99.596,-97.446c-0,-6.357 22.633,-32.498 36.69,-42.378c25.727,-18.082 54.466,-12.488 54.466,10.601c-0,9.738 -12.423,16.306 -36.708,19.41c-9.977,1.275 -25.929,5.28 -35.45,8.898c-20.162,7.663 -18.998,7.451 -18.998,3.469Zm-729.249,-117.048c-27.237,-3.209 -53.383,-9.182 -69.211,-15.811c-39.822,-16.678 -75.699,-45.656 -96.868,-78.24c-11.666,-17.957 -14.974,-20.68 -31.23,-25.709c-24.328,-7.528 -40.596,-18.017 -48.98,-31.583c-13.237,-21.417 -5.896,-41.819 18.382,-51.091c12.632,-4.824 19.604,-5.328 39.742,-2.871c13.432,1.638 36.576,2.838 51.431,2.667c23.782,-0.275 31.245,-2.064 62.459,-14.971c31.418,-12.992 38.52,-14.68 62.458,-14.848c35.686,-0.25 47.851,6.147 95.842,50.4c42.726,39.396 62.601,50.631 113.105,63.935c54.761,14.426 76.338,30.198 76.338,55.802c0,21.547 -24.876,36.243 -69.11,40.83c-14.911,1.547 -45.341,6.695 -67.624,11.441c-39.166,8.341 -108.18,13.414 -136.734,10.049Zm75.963,-38.177c20.469,-2.964 24.738,-0.729 -64.475,-33.751c-65.076,-24.088 -105.052,-35.141 -140.626,-38.882c-24.83,-2.611 -24.929,0.733 -0.717,24.184c29.673,28.741 62.017,41.852 121.414,49.217c17.792,2.206 66.952,1.759 84.404,-0.768l0,0Zm122.944,-15.761c16.181,-4.805 18.358,-4.805 23.667,0c7.717,6.984 10.38,6.676 10.38,-1.2c0,-9.15 -17.1,-25.168 -31.631,-29.627c-13.657,-4.192 -14.977,-2.866 -6.485,6.518c9.095,10.049 0.166,13.357 -31.095,11.52c-36.92,-2.169 -63.245,-11.141 -140.11,-47.751c-36.209,-17.247 -74.191,-34.151 -84.404,-37.565c-20.908,-6.989 -66.508,-8.319 -115.259,-3.362c-24.113,2.452 -31.025,2.04 -39.888,-2.382c-9.9,-4.939 -10.639,-4.919 -9.641,0.261c0.594,3.086 7.56,10.165 15.48,15.732c13.743,9.659 16.531,10.232 61.059,12.554c59.432,3.1 88.458,10.113 165.929,40.091c106.428,41.184 140.008,47.68 181.998,35.211l-0,0Zm92.139,-86.129c-38.031,-15.042 -64.131,-51.924 -70.003,-98.924l-2.465,-19.73l-16.445,2.181c-9.045,1.2 -16.445,1.284 -16.445,0.188c0,-3.606 28.2,-14.532 56.224,-21.783c59.166,-15.31 135.062,-14.53 187.371,1.926c15.502,4.876 31.224,10.586 34.938,12.688c5.952,3.368 4.952,4.024 -8.441,5.532l-15.192,1.71l-2.282,23.088c-4.015,40.616 -25.149,72.021 -60.869,90.45c-21.202,10.939 -62.28,12.21 -86.391,2.674l0,-0Zm98.678,-46.951c17.464,-8.527 27.834,-23.909 32.804,-48.656c3.261,-16.239 3.122,-20.061 -0.823,-22.559c-2.612,-1.654 -27.919,-3.03 -56.236,-3.059l-51.486,-0.052l-0,18.349c-0,29.459 10.431,48.294 32.073,57.913c14.379,6.391 27.836,5.794 43.668,-1.936l-0,0Zm-588.917,-69.36c-15.599,-7.026 -32.683,-23.705 -41.392,-40.415c-10.764,-20.65 -12.07,-62.092 -2.907,-92.259c3.939,-12.968 7.161,-24.914 7.161,-26.546c0,-1.633 -4.557,-5.661 -10.128,-8.951c-23.438,-13.845 -4.838,-14.85 35.449,-1.916c42.776,13.734 83.756,45.867 111.265,87.246c22.193,33.384 22.463,37.917 1.101,18.483c-22.951,-20.879 -68.41,-55.396 -72.957,-55.396c-11.467,-0 -14.608,56.026 -4.107,73.248c13.744,22.541 40.753,28.891 61.14,14.375c5.663,-4.033 11.247,-6.382 12.408,-5.221c3.343,3.343 -10.297,19.665 -25.308,30.284c-17.226,12.186 -52.618,15.674 -71.724,7.068l-0.001,0Zm-553.689,-190.654c-9.103,-9.103 -8.554,-24.538 1.281,-35.972c7.106,-8.26 10.839,-9.497 32.314,-10.711c22.415,-1.266 26.144,-0.45 48.517,10.624c13.331,6.597 29.252,17.182 35.382,23.522l11.145,11.527l-33.09,-1.525c-23.244,-1.071 -39.933,0.084 -56.088,3.882c-29.241,6.873 -31.312,6.803 -39.461,-1.347Zm165.81,-57.549c-14.722,-21.701 -42.694,-47.438 -76.511,-70.398c-31.634,-21.477 -35.28,-25.452 -35.28,-38.467c-0,-13.915 19.331,-32.778 33.591,-32.778c39.268,-0 81.344,65.192 93.155,144.33c1.177,7.892 0.868,14.31 -0.688,14.262c-1.556,-0.049 -7.976,-7.675 -14.267,-16.949l-0,-0Z" style="fill:#fff;fill-rule:nonzero;"/></g></g></svg>