<?xml version="1.0" encoding="UTF-8" standalone="no"?><!DOCTYPE svg PUBLIC "-//W3C//DTD SVG 1.1//EN" "http://www.w3.org/Graphics/SVG/1.1/DTD/svg11.dtd"><svg width="100%" height="100%" viewBox="0 0 1461 1386" version="1.1" xmlns="http://www.w3.org/2000/svg" xmlns:xlink="http://www.w3.org/1999/xlink" xml:space="preserve" xmlns:serif="http://www.serif.com/" style="fill-rule:evenodd;clip-rule:evenodd;stroke-linecap:round;stroke-linejoin:round;stroke-miterlimit:1.5;"><g><g><g><path d="M632.025,439.184c-2.084,-0.322 -5.154,-19.577 -3.969,-29.401c1.201,-9.951 9.089,-30.631 11.173,-30.309c2.085,0.322 2.535,22.29 1.334,32.242c-1.131,9.375 -6.453,27.79 -8.538,27.468Z" style="fill:none;stroke:#fff;stroke-width:51.86px;"/><path d="M968.338,544.156c-1.87,-0.976 1.421,-20.193 5.706,-29.113c4.34,-9.035 18.465,-26.075 20.335,-25.099c1.87,0.976 -4.776,21.919 -9.116,30.955c-4.089,8.511 -15.055,24.233 -16.925,23.257Z" style="fill:none;stroke:#fff;stroke-width:51.86px;"/><path d="M353.378,352.277c-10.34,6.576 -80.698,-20.496 -95.323,-34.119c-11.761,-10.955 -2.768,-41.045 7.571,-47.621c10.34,-6.576 41.033,-4.349 54.467,8.164c14.625,13.623 43.625,67 33.285,73.576Z" style="fill:#fff;"/><path d="M387.158,304.781c-14.479,-1.312 -34.831,-47.517 -36.672,-62.552c-1.48,-12.089 6.996,-30.616 30.094,-28.149c23.347,0.731 26.56,18.05 24.388,31.791c-3.122,19.748 -5.903,59.989 -17.81,58.91Z" style="fill:#fff;"/><path d="M1208.32,622.168c2.545,-10.062 61.616,-34.296 78.544,-34.409c13.613,-0.091 25.569,23.669 23.025,33.73c-2.545,10.062 -22.743,26.535 -38.291,26.639c-16.928,0.113 -65.822,-15.899 -63.278,-25.96Z" style="fill:#fff;"/></g><path d="M676.863,524.111c0,-0 5.069,46.499 92.481,65.39c81.043,17.514 104.211,-18.66 104.211,-18.66c0,0 -1.035,-19.385 -40.56,-49.741c-12.674,-9.734 -20.272,-29.707 -38.824,-36.306c-28.149,-10.013 -44.3,8.503 -65.326,14.083c-38.037,10.094 -51.982,25.234 -51.982,25.234Z" style="fill:none;stroke:#fff;stroke-width:31.48px;"/><path d="M437.284,813.589c0,-0 -189.806,-111.684 -163.372,-294.707c70.36,-98.855 218.223,77.712 218.223,77.712c0,-0 -81.553,-85.831 -13.764,-251.77c33.291,-81.494 95.434,-192.853 211.689,-237.626c145.408,-56 291.775,9.452 354.842,81.552c70.844,80.99 119.132,178.52 83.324,327.144c-37.708,156.505 -137.584,194.761 -137.584,194.761c0,-0 214.631,-68.104 232.643,86.358c-93.617,101.518 -241.493,112.169 -241.493,112.169" style="fill:none;stroke:#fff;stroke-width:58.33px;stroke-linecap:butt;"/></g><g><path d="M226.9,958.879c-0,32.087 -3.25,60.758 -9.75,86.013c-6.5,25.255 -15.461,46.116 -26.885,62.583c-11.424,16.466 -25.211,28.352 -41.362,35.659c-16.151,7.306 -33.68,9.293 -52.589,5.958l-46.089,-8.126c-11.817,-2.084 -21.075,-5.443 -27.771,-10.076c-6.697,-4.633 -11.72,-14.353 -15.068,-29.159c-3.348,-14.807 -5.416,-36.495 -6.204,-65.066c-0.788,-28.571 -1.182,-67.836 -1.182,-117.795c-0,-49.959 0.394,-89.085 1.182,-117.378c0.788,-28.293 2.856,-49.252 6.204,-62.878c3.348,-13.625 8.371,-21.574 15.068,-23.846c6.696,-2.271 15.954,-2.365 27.771,-0.281l46.089,8.126c18.909,3.334 36.438,11.502 52.589,24.504c16.151,13.003 29.938,29.751 41.362,50.246c11.424,20.495 20.385,44.415 26.885,71.759c6.5,27.344 9.75,57.263 9.75,89.757Zm-64.998,-11.461c0,-42.648 -6.204,-75.728 -18.612,-99.24c-12.409,-23.512 -28.067,-36.935 -46.976,-40.269l-19.499,-3.438c-3.545,-0.625 -6.303,-0.096 -8.272,1.588c-1.97,1.683 -3.447,6.703 -4.432,15.059c-0.985,8.356 -1.576,21.046 -1.773,38.07c-0.197,17.025 -0.295,40.565 -0.295,70.622c-0,30.057 0.098,53.632 0.295,70.726c0.197,17.094 0.788,29.992 1.773,38.695c0.985,8.704 2.462,14.244 4.432,16.622c1.969,2.379 4.727,3.88 8.272,4.505l19.499,3.439c18.909,3.334 34.567,-4.567 46.976,-23.703c12.408,-19.136 18.612,-50.028 18.612,-92.676Z" style="fill:#fff;fill-rule:nonzero;"/><path d="M361.621,1203.18c-15.757,-2.778 -30.135,-9.273 -43.134,-19.486c-13,-10.212 -24.029,-23.429 -33.09,-39.648c-9.06,-16.22 -16.052,-35.223 -20.976,-57.009c-4.924,-21.786 -7.386,-45.473 -7.386,-71.062l-0,-132.818c-0,-30.869 0.295,-55.085 0.886,-72.65c0.591,-17.564 1.871,-30.539 3.841,-38.924c1.97,-8.385 5.121,-13.313 9.454,-14.783c4.333,-1.47 10.045,-1.58 17.136,-0.329c7.09,1.25 12.704,3.357 16.84,6.32c4.136,2.963 7.288,8.901 9.454,17.812c2.167,8.912 3.447,22.135 3.841,39.67c0.394,17.535 0.591,41.533 0.591,71.996l-0,130.381c-0,27.213 3.84,49.418 11.522,66.613c7.681,17.195 18.022,26.939 31.021,29.231c13.394,2.361 23.931,-3.701 31.613,-18.187c7.681,-14.486 11.522,-35.336 11.522,-62.55l-0,-130.38c-0,-30.463 0.197,-54.392 0.591,-71.788c0.394,-17.396 1.674,-30.168 3.841,-38.315c2.166,-8.148 5.318,-12.974 9.454,-14.479c4.136,-1.504 9.749,-1.632 16.84,-0.381c7.091,1.25 12.802,3.374 17.136,6.372c4.333,2.998 7.484,9.037 9.454,18.117c1.969,9.08 3.25,22.506 3.841,40.279c0.59,17.773 0.886,42.093 0.886,72.962l-0,132.818c-0,25.589 -2.462,48.408 -7.386,68.458c-4.924,20.049 -12.015,36.569 -21.272,49.559c-9.257,12.989 -20.287,22.316 -33.09,27.979c-12.802,5.663 -27.279,7.07 -43.43,4.222Z" style="fill:#fff;fill-rule:nonzero;"/><path d="M496.934,1006.49c-0,-32.9 3.25,-62.383 9.75,-88.451c6.499,-26.067 15.658,-47.706 27.476,-64.915c11.817,-17.209 26.097,-29.618 42.839,-37.226c16.742,-7.609 35.354,-9.607 55.838,-5.995c11.424,2.014 22.454,5.584 33.09,10.708c7.485,3.757 13.295,7.32 17.431,10.69c4.136,3.369 7.189,7.258 9.159,11.667c1.969,4.409 3.151,9.898 3.545,16.466c0.394,6.568 0.591,14.929 0.591,25.084c0,12.997 -0.492,21.948 -1.477,26.851c-0.985,4.904 -4.235,6.869 -9.75,5.897c-3.151,-0.556 -8.469,-3.118 -15.954,-7.687l-4.136,-2.557c-4.727,-2.865 -9.454,-5.221 -14.181,-7.07c-4.727,-1.849 -9.454,-3.191 -14.181,-4.024c-11.424,-2.014 -21.765,-0.487 -31.022,4.583c-9.257,5.069 -17.135,12.92 -23.635,23.553c-6.5,10.633 -11.522,23.964 -15.068,39.991c-3.545,16.028 -5.318,33.993 -5.318,53.896c0,19.902 1.773,38.492 5.318,55.77c3.546,17.279 8.568,32.38 15.068,45.305c6.5,12.925 14.378,23.555 23.635,31.889c9.257,8.334 19.598,13.508 31.022,15.523c4.727,0.833 9.454,1.159 14.181,0.977c4.727,-0.182 9.454,-0.872 14.181,-2.069l4.136,-1.098c7.485,-1.93 12.803,-2.617 15.954,-2.061c5.515,0.972 8.765,4.084 9.75,9.334c0.985,5.251 1.477,14.375 1.477,27.373c0,10.154 -0.197,18.446 -0.591,24.875c-0.394,6.429 -1.576,11.501 -3.545,15.216c-1.97,3.714 -5.023,6.527 -9.159,8.437c-4.136,1.911 -9.946,3.425 -17.431,4.543c-10.636,1.374 -21.666,1.053 -33.09,-0.961c-20.484,-3.612 -39.096,-12.174 -55.838,-25.686c-16.742,-13.513 -31.022,-30.958 -42.839,-52.334c-11.818,-21.377 -20.977,-46.246 -27.476,-74.605c-6.5,-28.36 -9.75,-58.989 -9.75,-91.889Z" style="fill:#fff;fill-rule:nonzero;"/><path d="M791.195,1184.5c-0,20.309 -0.296,36.199 -0.887,47.67c-0.591,11.472 -1.871,19.979 -3.841,25.521c-1.969,5.542 -5.121,8.642 -9.454,9.3c-4.333,0.657 -10.045,0.361 -17.135,-0.889c-7.091,-1.251 -12.704,-3.967 -16.841,-8.148c-4.136,-4.182 -7.287,-13.572 -9.454,-28.17c-2.166,-14.598 -3.447,-36.148 -3.84,-64.649c-0.394,-28.502 -0.591,-67.732 -0.591,-117.691c-0,-49.959 0.197,-89.12 0.591,-117.482c0.393,-28.363 1.674,-49.461 3.84,-63.295c2.167,-13.834 5.318,-22.112 9.454,-24.835c4.137,-2.723 9.75,-3.46 16.841,-2.21c7.09,1.251 12.802,2.969 17.135,5.154c4.333,2.186 7.485,6.194 9.454,12.025c1.97,5.83 3.25,14.383 3.841,25.656c0.591,11.274 0.887,26.659 0.887,46.156c-0,19.496 0.098,34.948 0.295,46.355c0.197,11.408 0.591,19.905 1.182,25.493c0.591,5.587 1.477,9.196 2.659,10.826c1.182,1.63 2.757,2.618 4.727,2.966c2.363,0.416 4.333,0.053 5.909,-1.091c1.575,-1.144 3.545,-4.249 5.909,-9.315c2.363,-5.067 5.317,-12.974 8.863,-23.722c3.545,-10.747 8.272,-25.348 14.181,-43.803c5.909,-18.454 10.833,-32.919 14.772,-43.394c3.939,-10.475 7.977,-18.089 12.113,-22.843c4.136,-4.754 8.864,-7.373 14.181,-7.857c5.318,-0.484 12.311,0.038 20.977,1.566c9.06,1.598 15.757,3.489 20.09,5.675c4.333,2.186 6.5,6.325 6.5,12.417c-0,5.687 -2.265,14.934 -6.795,27.742c-4.531,12.808 -11.523,30.97 -20.977,54.485c-8.272,20.475 -14.477,37.76 -18.613,51.856c-4.136,14.096 -6.204,28.455 -6.204,43.077c-0,7.717 0.591,15.64 1.773,23.769c1.181,8.129 3.053,16.886 5.613,26.274c2.561,9.387 5.712,19.691 9.454,30.911c3.742,11.22 8.174,23.984 13.295,38.29c11.03,30.783 19.204,54.259 24.522,70.429c5.318,16.169 7.977,27.503 7.977,34.001c-0,6.093 -2.265,9.552 -6.795,10.378c-4.531,0.826 -11.326,0.44 -20.386,-1.158c-8.666,-1.528 -15.757,-3.489 -21.272,-5.883c-5.515,-2.394 -10.439,-6.918 -14.772,-13.571c-4.333,-6.654 -8.765,-16.168 -13.295,-28.542c-4.53,-12.375 -10.34,-29.342 -17.431,-50.9c-6.697,-21.49 -12.113,-38.387 -16.249,-50.692c-4.136,-12.305 -7.485,-21.527 -10.045,-27.665c-2.561,-6.138 -4.727,-10.074 -6.5,-11.808c-1.773,-1.734 -3.841,-2.81 -6.204,-3.226c-2.364,-0.417 -4.136,-0.019 -5.318,1.194c-1.182,1.214 -2.068,4.611 -2.659,10.194c-0.591,5.582 -0.985,14.143 -1.182,25.685c-0.197,11.541 -0.295,27.465 -0.295,47.774Z" style="fill:#fff;fill-rule:nonzero;"/><path d="M959.597,1088.07c-0,-49.959 0.197,-89.12 0.591,-117.482c0.393,-28.363 1.674,-49.461 3.84,-63.295c2.167,-13.834 5.318,-22.112 9.454,-24.836c4.137,-2.723 9.75,-3.459 16.841,-2.209c7.09,1.25 12.802,3.679 17.135,7.286c4.333,3.608 7.485,11.271 9.454,22.991c1.97,11.72 3.25,29.005 3.841,51.855c0.591,22.85 0.887,54.177 0.887,93.982c-0,39.805 0.393,71.149 1.181,94.034c0.788,22.884 2.758,40.291 5.909,52.219c3.152,11.928 7.78,19.853 13.886,23.772c6.106,3.92 14.674,6.853 25.703,8.797c13,2.293 23.143,4.386 30.431,6.28c7.288,1.894 12.704,4.576 16.249,8.044c3.546,3.468 5.811,8.132 6.796,13.992c0.984,5.86 1.477,13.868 1.477,24.022c-0,10.154 -0.69,17.953 -2.068,23.396c-1.379,5.443 -4.826,9.1 -10.341,10.971c-5.515,1.871 -13.689,2.156 -24.522,0.855c-10.832,-1.301 -25.9,-3.653 -45.202,-7.056c-18.909,-3.335 -33.878,-7.7 -44.907,-13.098c-11.03,-5.397 -19.204,-15.672 -24.522,-30.826c-5.318,-15.154 -8.666,-37.068 -10.045,-65.743c-1.379,-28.675 -2.068,-67.992 -2.068,-117.951Z" style="fill:#fff;fill-rule:nonzero;"/><path d="M1177.04,913.175c7.091,1.25 12.803,3.983 17.136,8.2c4.333,4.216 7.484,13.606 9.454,28.17c1.97,14.563 3.25,36.113 3.841,64.649c0.591,28.536 0.886,67.783 0.886,117.742c0,49.959 -0.295,89.103 -0.886,117.431c-0.591,28.327 -1.871,49.425 -3.841,63.294c-1.97,13.869 -5.121,22.147 -9.454,24.836c-4.333,2.688 -10.045,3.407 -17.136,2.157c-7.09,-1.25 -12.704,-3.966 -16.84,-8.148c-4.136,-4.182 -7.288,-13.572 -9.454,-28.17c-2.167,-14.598 -3.447,-36.147 -3.841,-64.649c-0.394,-28.501 -0.591,-67.731 -0.591,-117.69c0,-49.959 0.197,-89.12 0.591,-117.483c0.394,-28.362 1.674,-49.46 3.841,-63.294c2.166,-13.834 5.318,-22.113 9.454,-24.836c4.136,-2.723 9.75,-3.459 16.84,-2.209Z" style="fill:#fff;fill-rule:nonzero;"/><path d="M1244.99,1138.4c-0,-49.959 0.197,-89.12 0.591,-117.482c0.394,-28.363 1.576,-49.478 3.545,-63.347c1.97,-13.869 4.826,-22.199 8.568,-24.992c3.742,-2.792 8.962,-3.598 15.658,-2.417c6.303,1.111 11.72,3.183 16.25,6.216c4.53,3.032 9.454,9.282 14.772,18.75c5.318,9.467 11.621,23.474 18.908,42.021c7.288,18.548 17.037,43.926 29.249,76.136c24.423,65.232 38.211,98.126 41.362,98.682c2.363,0.417 3.545,-29.838 3.545,-90.763c0,-30.057 0.296,-53.664 0.887,-70.823c0.59,-17.158 1.969,-29.81 4.136,-37.958c2.166,-8.148 5.318,-12.974 9.454,-14.478c4.136,-1.505 9.749,-1.632 16.84,-0.382c7.091,1.251 12.803,3.984 17.136,8.2c4.333,4.217 7.484,13.607 9.454,28.17c1.97,14.563 3.25,36.113 3.841,64.649c0.591,28.536 0.886,67.784 0.886,117.743c-0,49.959 -0.197,89.12 -0.591,117.482c-0.394,28.363 -1.576,49.478 -3.545,63.347c-1.97,13.868 -4.826,22.199 -8.568,24.992c-3.742,2.792 -8.962,3.598 -15.658,2.417c-6.303,-1.111 -11.818,-3.2 -16.545,-6.268c-4.727,-3.067 -9.75,-9.335 -15.068,-18.802c-5.318,-9.467 -11.621,-23.474 -18.908,-42.022c-7.288,-18.547 -17.037,-44.129 -29.249,-76.745c-12.212,-32.616 -21.567,-57.011 -28.067,-73.185c-6.5,-16.175 -10.734,-24.436 -12.704,-24.783c-2.757,-0.486 -4.136,29.531 -4.136,90.05c-0,30.463 -0.296,54.273 -0.886,71.431c-0.591,17.158 -1.872,29.829 -3.841,38.011c-1.97,8.182 -5.121,13.008 -9.454,14.478c-4.334,1.47 -10.045,1.58 -17.136,0.33c-7.091,-1.251 -12.704,-3.967 -16.84,-8.149c-4.136,-4.181 -7.288,-13.571 -9.454,-28.169c-2.167,-14.598 -3.447,-36.148 -3.841,-64.649c-0.394,-28.502 -0.591,-67.732 -0.591,-117.691Z" style="fill:#fff;fill-rule:nonzero;"/></g><path d="M1004.81,4.22c22.817,12.868 21.94,45.871 4.287,77.174c-17.654,31.304 -36.956,53.915 -68.259,36.262c-26.769,-15.097 -21.941,-45.871 -4.287,-77.174c17.653,-31.303 45.442,-49.129 68.259,-36.262Z" style="fill:#fff;"/><path d="M1082.21,108.779c4.359,21.803 -18.418,32.859 -47.951,38.697c-29.532,5.837 -54.27,6.724 -59.067,-17.544c-4.102,-20.752 18.418,-32.859 47.951,-38.696c29.532,-5.837 54.777,-3.917 59.067,17.543Z" style="fill:#fff;"/><path d="M866.558,16.745c20.144,-10.474 37.226,8.261 51.057,35c13.831,26.739 21.498,50.289 -0.938,61.894c-19.186,9.924 -37.226,-8.261 -51.057,-34.999c-13.831,-26.739 -18.889,-51.585 0.938,-61.895Z" style="fill:#fff;"/></g></svg>