<?xml version="1.0" encoding="UTF-8" standalone="no"?><!DOCTYPE svg PUBLIC "-//W3C//DTD SVG 1.1//EN" "http://www.w3.org/Graphics/SVG/1.1/DTD/svg11.dtd"><svg width="100%" height="100%" viewBox="0 0 3000 3000" version="1.1" xmlns="http://www.w3.org/2000/svg" xmlns:xlink="http://www.w3.org/1999/xlink" xml:space="preserve" xmlns:serif="http://www.serif.com/" style="fill-rule:evenodd;clip-rule:evenodd;stroke-linejoin:round;stroke-miterlimit:2;"><rect x="0" y="0" width="3000" height="3000"/><g><g><path d="M2420.99,2801.08c-4.398,-8.653 -3.044,-13.284 64.323,-219.921l68.817,-211.081l10.966,-5.15c9.829,-4.616 15.089,-4.034 50.718,5.611c62.467,16.91 70.077,23.856 66.036,60.289c-1.187,10.704 -0.617,19.965 1.267,20.579c1.885,0.615 8.761,-1.75 15.281,-5.256c31.122,-16.732 60.844,-23.944 95.729,-23.227c22.852,0.469 80.39,19.239 102.587,33.459c48.845,31.305 79.069,83.853 80.597,140.126c1.087,40.013 -2.744,55.364 -50.416,201.995l-46.697,143.619l-10.078,4.733c-9.657,4.535 -12.873,3.821 -77.119,-17.125l-67.042,-21.856l-4.045,-11.035c-3.92,-10.694 -2.847,-14.711 34.639,-129.756c22.565,-69.246 38.927,-124.201 39.266,-131.871c2.808,-63.461 -74.867,-99.469 -120.992,-56.089c-8.024,7.547 -14.371,24.016 -52.989,137.493l-43.874,128.919l-9.945,3.803c-9.045,3.458 -15.95,1.844 -76.241,-17.812c-61.852,-20.164 -66.597,-22.206 -70.789,-30.453l0.001,0.006Z" style="fill:#fff;"/><path d="M2218.51,2747.78c-3.145,-8.609 1.432,-32.123 38.715,-198.877c47.63,-213.033 52.769,-230.927 69.591,-242.25c12.673,-8.532 16.358,-8.076 100.511,12.43c36.334,8.854 41.763,11.018 46.929,18.72l5.843,8.708l-102.075,436.307l-8.83,3.54c-7.286,2.92 -20.919,0.711 -77.974,-12.637l-69.144,-16.177l-3.566,-9.764Z" style="fill:#fff;"/><path d="M2017.55,2711.41c-5.853,-10.114 -5.64,-11.904 37.217,-311.989c39.665,-277.744 43.686,-302.545 50.424,-310.955c10.671,-13.321 22.894,-14.202 81.23,-5.856c45.857,6.561 53.677,8.544 62.553,15.86c21.025,17.331 22.344,-0.266 -24.661,328.87c-42.332,296.411 -42.632,298.234 -51.084,306.303l-8.5,8.117l-141.291,-20.178l-5.888,-10.172Z" style="fill:#fff;"/><path d="M1543.66,2084.2c57.184,5.269 115.695,5.891 169.009,1.453c0.564,19.903 -0.057,56.374 -1.301,127.295c-1.409,80.233 -1.218,148.082 0.421,150.777c2.151,3.535 6.627,4.282 16.079,2.683c16.688,-2.822 40.268,-25.651 65.263,-62.207c11.11,-2.792 24,-6.537 38.751,-11.374c13.048,-4.279 26.854,-8.564 36.823,-11.605c2.645,3.107 5.53,6.602 8.042,9.882c13.211,17.249 32.168,35.41 41.508,40.98c-0,-0 -0,-0 -0,-0c22.176,13.224 39.883,10.973 52.459,3.097c7.853,-4.919 15.151,-13.081 19.699,-26.282c2.905,-8.433 4.886,-20.216 5.438,-35.564c3.579,0.638 7.341,1.324 11.149,2.042c-1.391,10.022 -4.899,20.339 -10.316,29.271c-18.744,30.908 -77.023,103.525 -99.481,123.956c-6.106,5.555 -11.15,12.754 -11.208,15.997c-0.103,5.735 72.342,111.627 100.501,146.902c13.521,16.938 14.004,18.457 13.571,42.621c-0.392,21.895 -1.755,26.871 -10.796,39.431c-16.424,22.816 -39.617,31.469 -82.288,30.702c-27.956,-0.504 -37.174,-2.058 -49.239,-8.301l0,0c-17.53,-9.071 -27.123,-20.587 -52.134,-62.576c-10.223,-17.163 -28.165,-46.726 -39.871,-65.697l-21.283,-34.493l-37.457,18.461l-2.892,63.585c-2.553,56.132 -3.691,64.435 -9.702,70.833c-6.493,6.91 -10.12,7.188 -77.872,5.974l-71.063,-1.273l-7.099,-9.367c-7.059,-9.312 -7.068,-11.122 -1.649,-313.632c2.413,-134.662 4.924,-236.133 6.938,-283.571Z" style="fill:#fff;"/><path d="M1437.32,2226.21c21.318,12.53 38.354,27.253 49.578,43.283c14.943,21.344 8.495,35.514 -37.607,82.641c-32.682,33.408 -33.938,34.279 -49.438,34.273c-13.588,-0.007 -18.182,-2.042 -31.553,-13.988c-24.488,-21.878 -46.572,-31.595 -71.809,-31.595c-41.649,-0 -70.37,16.621 -86.84,50.257c-12.663,25.862 -13.641,70.747 -2.077,95.348c9.128,19.421 33.062,41.082 51.492,46.604c30.921,9.264 85.936,0.477 99.4,-15.877c11.285,-13.707 32.298,-25.577 45.277,-25.577c14.62,-0 25.025,7.169 53.373,36.777c24.604,25.697 37.525,45.412 37.525,57.259c-0,19.603 -39.88,56.587 -84.133,78.023c-24.436,11.838 -39.163,16.152 -77.14,22.598c-34.693,5.889 -59.229,5.892 -91.65,0.011l0,0c-39.077,-7.088 -72.74,-19.705 -99.926,-37.452c-73.24,-47.811 -109.507,-116.18 -109.81,-207.003c-0.175,-52.602 7.55,-86.756 28.523,-126.105c16.229,-30.449 40.651,-57.143 70.742,-78.189c2.153,13.108 10.511,26.27 30.934,30.298c1.899,0.374 3.829,0.563 5.764,0.563l0,-0c-1.935,-0 -3.865,-0.189 -5.764,-0.563c8.64,1.704 16.915,2.149 63.73,-2.258c11.966,-1.126 48.029,-8.279 80.105,-16.068c29.335,-7.124 73.105,-15.335 97.272,-18.218c11.818,-1.41 23.692,-3.214 34.032,-5.042Zm-269.375,42.149c15.331,-0 15.331,-0 0,-0l0,-0Z" style="fill:#fff;"/><path d="M737.259,2770.24c-50.443,-1.558 -101.607,-26.205 -128.796,-62.044c-30.104,-39.682 -34.582,-54.515 -62.161,-205.931c-25.845,-141.9 -25.68,-139.322 -9.551,-149.084c8.819,-5.338 102.538,-23.518 119.773,-23.235c21.557,0.355 21.839,1.173 46.687,135.088c24.423,131.628 24.613,132.222 46.971,146.88c14.449,9.472 26.294,11.09 49.764,6.797c26.467,-4.842 43.505,-19.821 50.472,-44.369c4.756,-16.761 4.584,-18.267 -15.939,-139.385c-18.984,-112.033 -20.351,-123.014 -16.08,-129.188c4.176,-6.037 11.581,-8.012 70.352,-18.763c0,-0 36.171,-6.604 60.237,-10.997c5.566,-1.016 11.307,0.221 15.961,3.438c4.653,3.218 7.838,8.152 8.853,13.718c9.866,54.108 35.4,194.132 35.4,194.132c20.763,113.537 30.459,169.009 34.909,195.325c1.824,12.53 -6.536,24.276 -18.972,26.657c-18.888,3.618 -42.757,8.187 -42.757,8.187c-62.106,11.361 -61.451,11.537 -71.553,-19.194c-2.944,-8.953 -6.496,-16.726 -7.894,-17.273c-1.399,-0.547 -9.938,9.099 -18.976,21.434c-19.41,26.489 -38.586,41.393 -69.356,53.907c-26.939,10.955 -48.317,14.797 -77.345,13.9l0.001,0Z" style="fill:#fff;"/><path d="M171.613,2927.64c-20.204,-4.93 -13.207,12.897 -93.466,-238.133c-0,0 -54.438,-170.252 -72.267,-226.015c-3.088,-9.655 2.198,-19.992 11.834,-23.141c31.737,-10.373 95.755,-31.296 95.755,-31.296c64.354,-21.17 105.761,-33.59 119.207,-35.754c121.496,-19.554 215.189,22.513 271.436,121.871c11.862,20.954 32.196,82.274 34.583,104.293c6.594,60.816 -0.911,104.577 -26.114,152.269c-14.786,27.979 -36.051,53.249 -60.737,72.178c-14.061,10.781 -21.059,15.099 -55.068,33.981c-7.897,4.385 -53.154,20.067 -114.415,39.647c-93.681,29.943 -102.061,32.219 -110.748,30.099l-0,0.001Zm182.117,-205.487c34.633,-33.376 42.184,-79.98 21.82,-134.67c-8.962,-24.07 -11.878,-29.099 -25.425,-43.863c-33.548,-36.559 -75.805,-43.612 -135.199,-22.566l-25.945,9.193l35.338,112.905c32.937,105.231 35.729,113.042 41.082,114.941c4.356,1.545 13.995,-0.892 39.915,-10.09c32.054,-11.374 35.055,-12.976 48.414,-25.85l-0,-0Z" style="fill:#fff;"/><g><path d="M1016.12,2273.82c-0.38,-74.547 14.433,-119.408 52.159,-157.964c32.793,-33.513 65.109,-43.781 82.634,-26.257c16.482,16.483 -1.367,66.444 -15.755,79.646l-23.432,7.841l15.921,5.797c-0,-0 -5.424,9.183 -19.536,22.27c-12.654,11.735 -31.112,33.17 -41.018,47.632l-22.914,31c0,0 4.662,-40.608 16.192,-76.473c4.242,-13.195 11.005,-27.224 11.005,-27.224c-0,-0 -2.135,1.572 -5.772,5.513c-21.839,23.665 -47.567,126.104 -47.567,126.104c-0,-0 -1.778,-10.64 -1.917,-37.885l0,0Z" style="fill:#fff;"/><path d="M989.85,2176.25c-4.207,-6.807 -6.48,-35.281 -4.089,-51.225c2.719,-18.132 13.97,-28.728 26.337,-24.803c7.682,2.438 8.73,15.206 5.777,24.939c-1.745,5.75 -7.205,12.828 -10.384,20.69c-2.938,7.264 -3.969,12.846 -5.454,16.96c-5.693,15.763 -9.597,17.63 -12.187,13.439Z" style="fill:#fff;"/></g><g><path d="M2298.51,2225.2c36.072,-77.735 73.427,-117.156 131.533,-138.809c50.507,-18.82 89.148,-13.693 98.805,13.11c9.083,25.209 -33.925,68.45 -55.351,75.145l-28.211,-3.306l13.726,13.819c-0,-0 -10.134,6.899 -31.217,13.61c-18.904,6.018 -48.591,19.285 -65.971,29.483l-39.001,21.04c0,-0 24.715,-39.963 54.255,-71.632c10.867,-11.651 24.765,-22.936 24.765,-22.936c-0,-0 -2.99,0.591 -8.701,2.911c-34.296,13.935 -111.172,107.912 -111.172,107.912c0,-0 3.356,-11.938 16.54,-40.348l-0,0.001Z" style="fill:#fff;"/><path d="M2306.85,2129.3c-4.341,-11.044 1.476,-47.27 10.427,-64.933c20.608,-40.669 61.631,-53.98 61.631,-19.998c0,8.748 -5.169,15.788 -28.327,38.574c-15.581,15.33 -31.229,33.469 -34.774,40.31c-5.473,10.561 -6.825,11.473 -8.957,6.047Z" style="fill:#fff;"/></g></g><g><path id="path897" d="M2040.83,2251.81c-3.899,-0.786 -7.959,-1.623 -12.176,-2.512c-30.909,-6.513 -57.6,-10.975 -59.312,-9.916c-1.713,1.059 -3.115,12.23 -3.115,24.825c0,43.166 -9.86,55.91 -32.715,42.282c-7.543,-4.499 -22.445,-19.577 -33.115,-33.508c-10.67,-13.931 -20.972,-25.329 -22.894,-25.329c-1.921,-0 -26.628,7.587 -54.904,16.859c-55.27,18.125 -78.913,21.332 -78.913,10.703c0,-8.357 9.307,-16.34 48.892,-41.936c40.559,-26.226 67.149,-46.916 74.28,-57.8c4.837,-7.382 4.709,-9.626 -1.567,-27.482c-3.758,-10.694 -16.725,-37.335 -28.815,-59.202c-12.09,-21.867 -21.981,-41.605 -21.981,-41.605c27.475,-0.713 50.246,-5.749 68.801,-14.66c-0,-0 4.162,10.115 8.543,21.242c12.833,32.587 37.034,81.234 47.821,96.124c8.715,12.031 18.437,17.853 76.44,45.777c10.829,5.213 20.276,9.765 28.55,13.765c-1.17,12.804 -2.438,26.881 -3.82,42.373Zm-862.348,-98.838c16.032,-2.502 36.501,-4.938 54.371,-6.343c89.495,-7.035 113.167,-9.335 115.005,-11.172c0.99,-0.99 -4.402,-23.416 -11.982,-49.836c-7.58,-26.419 -12.7,-49.117 -12.7,-49.117c0,0 12.012,4.422 26.188,8.82c20.346,6.311 33.422,9.375 33.422,9.375c-0,-0 0.787,-24.918 0.62,-28.67l-42.684,-14.805c-109.562,-35.879 -216.03,-104.372 -271.287,-174.525c-65.69,-83.398 -94.457,-167.836 -94.508,-277.41c-0.016,-36.813 8.123,-105.065 15.245,-127.834c1.162,-3.713 -8.136,-11.889 -31.48,-27.68c-105.585,-71.426 -192.281,-169.411 -245.311,-277.259c-41.562,-84.525 -59.807,-156.033 -60.222,-236.028c-0.259,-49.996 -0.14,-50.83 10.295,-72.495c12.935,-26.854 36.868,-53.804 78.159,-88.013c41.52,-34.398 71.566,-50.232 95.321,-50.232c33.446,-0 59.988,20.396 78.478,60.305c7.059,15.236 10.792,19.043 25.243,25.738c40.585,18.803 51.887,73.126 28.009,134.621l-9.909,25.518l8.919,13.096c15.038,22.081 73.123,80.576 76.58,77.12c0.868,-0.868 -2.928,-11.289 -8.437,-23.157c-18.674,-40.226 -27.78,-78.45 -28.034,-117.675c-0.347,-53.625 10.861,-87.523 46.814,-141.592c11.866,-17.845 18.892,-35.051 33.196,-81.296c29.048,-93.915 56.811,-154.701 99.667,-218.212c66.128,-97.999 158.772,-167.635 271.306,-203.927c49.942,-16.106 88.735,-22.972 144.19,-25.521l46.406,-2.133l-12.438,-18.545c-15.363,-22.906 -45.209,-52.591 -66.229,-65.872c-8.701,-5.497 -15.822,-11.09 -15.826,-12.429c-0.013,-6.039 40.337,-14.042 70.803,-14.042c52.111,-0 95.802,16.579 142.014,53.888c14.713,11.878 27.167,21.596 27.676,21.596c1.959,-0 -4.518,-55.093 -7.996,-68.008c-2.013,-7.478 -2.904,-14.354 -1.979,-15.279c2.159,-2.159 23.855,4.855 39.803,12.869c17.728,8.909 51.785,41.48 67.374,64.436c15.68,23.089 29.098,53.61 41.44,94.26c9.745,32.098 8.711,30.869 58.859,69.953c116.689,90.947 189.317,235.896 206.239,411.609c4.939,51.286 2.267,152.335 -5.335,201.711c-14.314,92.98 -49.998,166.819 -109.525,226.635c-23.688,23.803 -78.581,63.976 -94.186,68.928c-3.833,1.217 -6.946,3.248 -6.917,4.514c0.027,1.266 17.858,10.933 39.619,21.483c120.42,58.376 203.101,145.976 203.101,215.184c-0,31.72 -20.628,79.121 -52.031,119.561c-8.46,10.895 -14.747,20.445 -13.97,21.222c2.78,2.779 49.497,-6.128 75.21,-14.34c14.407,-4.601 28.092,-8.385 30.41,-8.408c5.672,-0.064 5.375,16.025 -0.969,52.402c-28.041,160.801 -151.945,293.153 -341.088,364.346c-10.416,3.921 -18.94,6.827 -18.94,6.827c0,0 3.616,-8.847 14.541,-21.36c8.092,-9.269 21.87,-18.332 43.834,-28.835c126.033,-60.268 222.069,-162.874 267.457,-285.756c11.266,-30.502 18.287,-57.321 15.006,-57.321c-0.837,0 -13.387,3.035 -27.889,6.744c-16.105,4.119 -37.642,6.773 -55.332,6.819c-23.429,0.063 -30.575,1.323 -37.394,6.608l-8.43,6.534l15.758,14.535c8.667,7.994 16.8,18.686 18.074,23.76c8.276,32.975 -23.259,61.873 -86.095,78.898c-34.546,9.36 -101.436,7.965 -137.104,-2.86c-35.667,-10.824 -61.181,-26.441 -85.45,-52.301c-42.978,-45.797 -45.088,-98.549 -6.577,-164.45l13.437,-22.995l-17.032,-18.009c-15.74,-16.643 -33.538,-47.402 -33.616,-58.096c-0.014,-2.494 9.45,5.261 21.041,17.234c11.591,11.973 29.698,27.273 40.239,34c10.54,6.727 20.126,13.786 21.302,15.688c1.175,1.902 -5.014,14.214 -13.754,27.361c-20.678,31.103 -25.876,56.91 -18.631,94.803c11.863,62.055 113.829,115.25 196.411,108.559c47.281,-3.831 87.171,-25.291 87.171,-43.282c-0,-15.385 -43.045,-45.081 -59.398,-40.977c-11.512,2.889 -9.88,-1.883 3.84,-11.227c19.043,-12.969 63.16,-58.019 80.194,-81.891c37.921,-53.142 46.197,-90.422 28.521,-128.49c-29.184,-62.857 -111.835,-127.415 -223.435,-174.522l-33.718,-14.233l-25.289,3.838c-13.909,2.111 -33.634,3.734 -43.834,3.605l-18.545,-0.233l37.09,-12.833c75.487,-36.404 108.561,-57.748 160.758,-111.448c46.454,-47.792 79.758,-102.443 101.813,-199.377c11.082,-48.71 21.829,-121.951 15.249,-183.463c-8.165,-76.325 -22.581,-148.3 -67.068,-239.319c-33.355,-68.243 -68.917,-108.834 -126.425,-173.624c-30.168,-33.988 -41.264,-38.51 -57.412,-84.322c-17.663,-50.112 -33.774,-79.118 -58.513,-105.35c-11.815,-12.529 -22.766,-22.78 -24.336,-22.78c-1.569,0 -1.923,19.447 -0.786,43.216c1.137,23.768 0.948,49.178 -0.419,56.466l-2.486,13.251l-10.626,-13.476c-20.443,-25.924 -44.562,-49.815 -65.141,-64.524c-38.984,-27.862 -91.904,-46.483 -126.095,-44.368l-16.259,1.006l21.627,17.669c25.751,21.04 48.504,48.984 62.486,76.742l10.191,20.231l-63.384,2.067c-71.613,2.334 -107.649,18.025 -164.44,37.673c-70.587,24.42 -126.209,59.983 -180.215,113.906c-39.678,39.617 -73.035,82.871 -101.763,138.47c-26.206,50.719 -44.672,79.016 -64.747,145.305c-11.724,38.71 -18.649,55.203 -31.82,75.776c-35.585,55.584 -44.719,82.339 -44.719,130.993c-0,54.337 17.255,103.531 58.248,166.063c11.793,17.988 29.713,41.81 39.822,52.938c30.22,33.261 30.744,34.674 8.143,21.979c-93.246,-52.377 -154.321,-100.693 -194.417,-153.8c-7.569,-10.024 -14.584,-18.226 -15.59,-18.226c-1.006,-0 -9.226,4.747 -18.268,10.549c-9.042,5.802 -17.068,9.921 -17.836,9.153c-0.769,-0.769 5.161,-9.688 13.176,-19.822c44.327,-56.044 55.454,-120.88 26.163,-152.456c-15.581,-16.797 -42.926,-8.861 -77.241,22.417c-15.265,13.913 -17.959,18.111 -17.1,26.641c1.699,16.879 15.447,24.28 45.1,24.28c13.773,-0 24.598,1.332 24.055,2.961c-0.953,2.857 -11.265,8.662 -36.103,20.323c-6.491,3.048 -15.595,11.085 -20.231,17.862c-7.21,10.538 -8.43,16.109 -8.43,38.503c0,25.275 -0.402,26.596 -11.62,38.174c-15.182,15.669 -18.81,15.193 -10.365,-1.361c8.541,-16.742 8.547,-23.977 0.03,-40.669c-6.525,-12.79 -7.39,-13.278 -22.947,-12.927c-25.864,0.582 -43.275,-11.508 -57.559,-39.972c-11.608,-23.13 -8.365,-23.469 14.501,-1.512c17.348,16.659 23.771,20.766 32.477,20.766c22.254,-0 42.866,-20.593 39.381,-39.345c-0.975,-5.251 -3.387,-18.424 -5.359,-29.274c-3.225,-17.746 -7.445,-26.582 -28.584,-59.852c-10.025,-15.776 -0.274,-11.613 21.545,9.198l19.891,18.973l11.757,-10.323c6.466,-5.677 18.645,-14.359 27.064,-19.293c8.419,-4.934 15.293,-10.723 15.276,-12.865c-0.067,-8.195 -20.599,-39.26 -31.387,-47.488c-23.492,-17.919 -43.256,-14.834 -79.305,12.377c-56.169,42.397 -93.019,81.651 -101.617,108.247c-6.262,19.367 -4.805,79.494 2.883,119.059c28.932,148.876 128.796,302.771 257.188,396.337c46.981,34.236 60.169,41.348 60.169,32.445c0,-10.824 46.139,-96.294 69.309,-128.39c14.4,-19.948 27.545,-34.907 27.545,-34.907c-0,-0 -13.214,19.841 -23.392,53.789c-31.981,106.67 -40.166,212.863 -24.051,318.739c18.688,122.776 70.778,206.103 176.258,284.859c82.08,61.284 145.286,95.884 292.505,127.953c40.814,8.891 146.149,24.245 179.43,20.07c22.934,-2.877 27.058,-2.387 51.687,6.141c14.721,5.098 30.136,11.085 30.136,11.085c0,0 -23.826,3.943 -52.577,7.232c-97.414,11.143 -217.368,3.482 -313.161,-20.001c-17.286,-4.238 -21.334,-4.323 -21.334,-4.323c-0,0 1.577,65.435 6.791,85.144c6.771,25.593 11.308,31.86 28.523,39.398c35.403,15.501 43.95,29.341 23.314,37.751c-6.027,2.457 -31.442,6.911 -56.478,9.898c-25.036,2.987 -70.384,11.469 -100.774,18.849c-30.389,7.38 -64.529,14.291 -75.866,15.358c-40.552,3.818 -47.689,4.165 -55.174,2.689l0,0c-11.15,-2.198 -9.418,-12.837 3.372,-20.707c6.027,-3.708 29.922,-14.527 53.1,-24.04c41.238,-16.927 58.1,-26.23 40.468,-22.328c-20.108,4.45 -81.485,12.092 -96.53,12.019c-1.965,-0.009 -4.026,-0.077 -6.136,-0.196c5.792,-7.783 11.671,-18.549 16.263,-30.339Zm1092.9,-876.609c-25.645,-17.322 -52.308,-30.937 -75.416,-38.508c-21.128,-6.922 -19.076,-9.5 12.271,-15.415c43.134,-8.139 84.917,3.024 101.078,27.004c13.014,19.31 7.577,40.622 -10.357,40.596c-4.04,-0.007 -16.449,-6.161 -27.576,-13.677Zm-99.47,-97.321c0,-6.349 22.605,-32.457 36.644,-42.324c25.694,-18.059 54.396,-12.472 54.396,10.587c-0,9.725 -12.407,16.286 -36.661,19.386c-9.964,1.273 -25.896,5.272 -35.405,8.886c-20.136,7.654 -18.974,7.442 -18.974,3.465Zm-728.316,-116.899c-27.202,-3.205 -53.315,-9.17 -69.123,-15.791c-39.771,-16.656 -75.602,-45.597 -96.744,-78.139c-11.651,-17.934 -14.955,-20.654 -31.19,-25.677c-24.297,-7.518 -40.544,-17.994 -48.917,-31.542c-13.22,-21.39 -5.889,-41.765 18.358,-51.026c12.616,-4.818 19.579,-5.321 39.691,-2.867c13.415,1.636 36.529,2.834 51.365,2.663c23.752,-0.274 31.206,-2.061 62.379,-14.952c31.379,-12.975 38.472,-14.661 62.379,-14.828c35.641,-0.25 47.789,6.139 95.72,50.335c42.671,39.346 62.52,50.566 112.96,63.854c54.691,14.407 76.24,30.159 76.24,55.73c0,21.519 -24.844,36.197 -69.022,40.778c-14.891,1.544 -45.283,6.686 -67.537,11.426c-39.116,8.331 -108.042,13.397 -136.559,10.036Zm75.866,-38.128c20.443,-2.96 24.706,-0.727 -64.393,-33.708c-64.993,-24.057 -104.918,-35.096 -140.446,-38.832c-24.799,-2.608 -24.898,0.732 -0.716,24.153c29.635,28.704 61.937,41.799 121.259,49.154c17.769,2.204 66.866,1.757 84.295,-0.767l0.001,0Zm122.786,-15.74c16.16,-4.799 18.335,-4.799 23.638,-0c7.707,6.975 10.366,6.667 10.366,-1.2c0,-9.138 -17.079,-25.135 -31.59,-29.589c-13.64,-4.186 -14.958,-2.861 -6.477,6.51c9.083,10.037 0.166,13.34 -31.055,11.506c-36.873,-2.167 -63.164,-11.127 -139.931,-47.691c-36.163,-17.224 -74.096,-34.106 -84.296,-37.516c-20.882,-6.981 -66.424,-8.309 -115.112,-3.358c-24.082,2.449 -30.985,2.037 -39.838,-2.379c-9.887,-4.933 -10.625,-4.913 -9.628,0.261c0.594,3.082 7.551,10.152 15.461,15.711c13.725,9.647 16.509,10.219 60.981,12.539c59.355,3.095 88.344,10.099 165.716,40.039c106.292,41.131 139.829,47.62 181.765,35.166l0,0.001Zm92.022,-86.02c-37.983,-15.022 -64.049,-51.858 -69.914,-98.797l-2.462,-19.705l-16.424,2.178c-9.033,1.199 -16.423,1.283 -16.423,0.188c-0,-3.602 28.163,-14.513 56.152,-21.756c59.09,-15.29 134.889,-14.51 187.131,1.924c15.482,4.87 31.184,10.573 34.893,12.672c5.945,3.364 4.946,4.019 -8.429,5.525l-15.174,1.708l-2.279,23.058c-4.009,40.565 -25.116,71.929 -60.791,90.335c-21.175,10.925 -62.2,12.195 -86.28,2.67l0,0Zm98.551,-46.89c17.442,-8.517 27.799,-23.879 32.763,-48.595c3.257,-16.218 3.118,-20.035 -0.822,-22.529c-2.609,-1.652 -27.883,-3.027 -56.165,-3.055l-51.42,-0.053l0,18.326c0,29.422 10.418,48.232 32.032,57.839c14.361,6.382 27.801,5.786 43.613,-1.934l-0.001,0.001Zm-588.164,-69.272c-15.579,-7.017 -32.641,-23.675 -41.339,-40.363c-10.75,-20.624 -12.055,-62.013 -2.903,-92.141c3.933,-12.952 7.152,-24.882 7.152,-26.513c0,-1.63 -4.552,-5.653 -10.115,-8.94c-23.408,-13.827 -4.832,-14.831 35.404,-1.913c42.721,13.716 83.648,45.809 111.122,87.135c22.165,33.341 22.434,37.869 1.1,18.459c-22.921,-20.852 -68.323,-55.325 -72.864,-55.325c-11.452,-0 -14.589,55.954 -4.102,73.154c13.727,22.512 40.702,28.855 61.062,14.357c5.656,-4.028 11.233,-6.374 12.392,-5.214c3.339,3.339 -10.283,19.639 -25.276,30.245c-17.204,12.171 -52.55,15.654 -71.632,7.059l-0.001,0Zm-552.981,-190.41c-9.092,-9.092 -8.543,-24.507 1.28,-35.926c7.096,-8.25 10.824,-9.486 32.272,-10.698c22.386,-1.265 26.11,-0.449 48.455,10.61c13.313,6.589 29.215,17.161 35.337,23.492l11.13,11.513l-33.047,-1.523c-23.214,-1.07 -39.882,0.084 -56.017,3.877c-29.204,6.864 -31.271,6.794 -39.41,-1.345Zm165.598,-57.476c-14.703,-21.673 -42.64,-47.378 -76.413,-70.308c-31.594,-21.449 -35.235,-25.42 -35.235,-38.418c-0,-13.897 19.306,-32.736 33.548,-32.736c39.217,-0 81.24,65.108 93.035,144.146c1.177,7.881 0.868,14.291 -0.686,14.243c-1.554,-0.048 -7.966,-7.665 -14.249,-16.927l-0,0Z" style="fill:#fff;fill-rule:nonzero;"/></g></g></svg>