<?xml version="1.0" encoding="UTF-8" standalone="no"?><!DOCTYPE svg PUBLIC "-//W3C//DTD SVG 1.1//EN" "http://www.w3.org/Graphics/SVG/1.1/DTD/svg11.dtd"><svg width="100%" height="100%" viewBox="0 0 813 412" version="1.1" xmlns="http://www.w3.org/2000/svg" xmlns:xlink="http://www.w3.org/1999/xlink" xml:space="preserve" xmlns:serif="http://www.serif.com/" style="fill-rule:evenodd;clip-rule:evenodd;stroke-linecap:round;stroke-linejoin:round;stroke-miterlimit:1.5;"><g><path d="M357.241,220.716l94.352,11.312l-37.278,87.411l-57.074,-98.723Z" style="fill:url(#_Linear1);"/><path d="M132.029,301.226l-103.162,-0.032c47.715,0 67.529,-106.519 82.707,-191.503c0,0 50.849,104.626 94.532,102.056c49.296,-2.901 70.917,-47.187 92.127,-34.738c48.807,28.65 -70.655,90.272 -25.688,120.077c22.673,15.028 82.172,-11.128 126.396,-34.618" style="fill:none;stroke:url(#_Linear2);stroke-width:56.31px;"/><g><path d="M436.693,131.559l0,11.642l-15.806,-0l-0,48.014l-14.532,-0l0,-48.014l-15.806,-0l-0,-11.642l46.144,-0Z" style="fill:url(#_Linear3);fill-rule:nonzero;"/><path d="M474.424,191.215l-12.407,-22.52l-3.484,0l0,22.52l-14.531,-0l-0,-59.656l24.389,-0c4.702,-0 8.71,0.821 12.025,2.464c3.314,1.643 5.792,3.895 7.435,6.756c1.643,2.861 2.465,6.048 2.465,9.56c-0,3.966 -1.119,7.507 -3.357,10.623c-2.238,3.116 -5.538,5.325 -9.9,6.628l13.767,23.625l-16.402,-0Zm-15.891,-32.803l9.008,0c2.663,0 4.66,-0.651 5.991,-1.954c1.331,-1.303 1.997,-3.144 1.997,-5.524c0,-2.266 -0.666,-4.051 -1.997,-5.354c-1.331,-1.303 -3.328,-1.954 -5.991,-1.954l-9.008,-0l0,14.786Z" style="fill:url(#_Linear4);fill-rule:nonzero;"/><path d="M513.94,143.201l0,12.067l19.461,0l-0,11.218l-19.461,-0l0,13.087l22.01,-0l0,11.642l-36.541,-0l-0,-59.656l36.541,-0l0,11.642l-22.01,-0Z" style="fill:url(#_Linear5);fill-rule:nonzero;"/><path d="M582.519,180.677l-22.265,0l-3.569,10.538l-15.211,-0l21.585,-59.656l16.826,-0l21.585,59.656l-15.382,-0l-3.569,-10.538Zm-3.739,-11.217l-7.393,-21.84l-7.308,21.84l14.701,-0Z" style="fill:url(#_Linear6);fill-rule:nonzero;"/><path d="M629.598,191.81c-4.362,-0 -8.271,-0.708 -11.727,-2.125c-3.456,-1.416 -6.218,-3.512 -8.285,-6.288c-2.068,-2.776 -3.159,-6.119 -3.272,-10.028l15.466,-0c0.227,2.209 0.992,3.895 2.295,5.056c1.303,1.162 3.002,1.742 5.098,1.742c2.153,0 3.853,-0.495 5.099,-1.487c1.247,-0.991 1.87,-2.365 1.87,-4.121c-0,-1.473 -0.496,-2.691 -1.487,-3.654c-0.992,-0.964 -2.21,-1.757 -3.654,-2.38c-1.445,-0.623 -3.499,-1.331 -6.162,-2.124c-3.852,-1.19 -6.996,-2.38 -9.432,-3.57c-2.436,-1.189 -4.533,-2.946 -6.289,-5.268c-1.756,-2.323 -2.634,-5.354 -2.634,-9.093c-0,-5.552 2.011,-9.9 6.033,-13.045c4.023,-3.144 9.263,-4.716 15.722,-4.716c6.571,-0 11.869,1.572 15.891,4.716c4.022,3.145 6.175,7.521 6.458,13.13l-15.721,-0c-0.113,-1.926 -0.821,-3.442 -2.124,-4.547c-1.303,-1.104 -2.975,-1.657 -5.014,-1.657c-1.756,0 -3.173,0.468 -4.249,1.402c-1.077,0.935 -1.615,2.281 -1.615,4.037c0,1.926 0.907,3.427 2.72,4.504c1.812,1.076 4.645,2.238 8.498,3.484c3.852,1.303 6.982,2.549 9.39,3.739c2.408,1.19 4.49,2.918 6.246,5.184c1.756,2.266 2.634,5.184 2.634,8.753c0,3.399 -0.864,6.487 -2.592,9.263c-1.728,2.776 -4.234,4.985 -7.52,6.628c-3.286,1.643 -7.167,2.465 -11.643,2.465Z" style="fill:url(#_Linear7);fill-rule:nonzero;"/><path d="M674.553,131.559l-0,35.691c-0,3.57 0.878,6.317 2.634,8.243c1.757,1.927 4.334,2.89 7.733,2.89c3.4,-0 6.006,-0.963 7.819,-2.89c1.813,-1.926 2.719,-4.673 2.719,-8.243l0,-35.691l14.532,-0l-0,35.606c-0,5.326 -1.133,9.83 -3.4,13.512c-2.266,3.683 -5.311,6.459 -9.135,8.328c-3.824,1.87 -8.087,2.805 -12.789,2.805c-4.703,-0 -8.909,-0.921 -12.62,-2.762c-3.711,-1.841 -6.643,-4.617 -8.795,-8.328c-2.153,-3.711 -3.23,-8.229 -3.23,-13.555l0,-35.606l14.532,-0Z" style="fill:url(#_Linear8);fill-rule:nonzero;"/><path d="M750.61,191.215l-12.407,-22.52l-3.484,0l-0,22.52l-14.532,-0l0,-59.656l24.39,-0c4.702,-0 8.71,0.821 12.024,2.464c3.315,1.643 5.793,3.895 7.436,6.756c1.643,2.861 2.465,6.048 2.465,9.56c-0,3.966 -1.119,7.507 -3.357,10.623c-2.238,3.116 -5.538,5.325 -9.9,6.628l13.766,23.625l-16.401,-0Zm-15.891,-32.803l9.008,0c2.663,0 4.66,-0.651 5.991,-1.954c1.331,-1.303 1.997,-3.144 1.997,-5.524c-0,-2.266 -0.666,-4.051 -1.997,-5.354c-1.331,-1.303 -3.328,-1.954 -5.991,-1.954l-9.008,-0l-0,14.786Z" style="fill:url(#_Linear9);fill-rule:nonzero;"/><path d="M790.126,143.201l0,12.067l19.46,0l0,11.218l-19.46,-0l0,13.087l22.01,-0l-0,11.642l-36.542,-0l0,-59.656l36.542,-0l-0,11.642l-22.01,-0Z" style="fill:url(#_Linear10);fill-rule:nonzero;"/><path d="M535.695,225.037l0,59.656l-14.531,0l-0,-24.559l-22.605,-0l-0,24.559l-14.532,0l0,-59.656l14.532,-0l-0,23.37l22.605,-0l-0,-23.37l14.531,-0Z" style="fill:url(#_Linear11);fill-rule:nonzero;"/><path d="M560.424,225.037l0,35.692c0,3.569 0.879,6.317 2.635,8.243c1.756,1.926 4.334,2.889 7.733,2.889c3.399,0 6.005,-0.963 7.818,-2.889c1.813,-1.926 2.72,-4.674 2.72,-8.243l-0,-35.692l14.531,-0l0,35.607c0,5.325 -1.133,9.829 -3.399,13.512c-2.266,3.682 -5.311,6.458 -9.135,8.328c-3.825,1.869 -8.088,2.804 -12.79,2.804c-4.702,-0 -8.909,-0.921 -12.619,-2.762c-3.711,-1.841 -6.643,-4.617 -8.796,-8.328c-2.153,-3.711 -3.229,-8.229 -3.229,-13.554l-0,-35.607l14.531,-0Z" style="fill:url(#_Linear12);fill-rule:nonzero;"/><path d="M659.426,284.693l-14.531,0l-24.305,-36.796l0,36.796l-14.531,0l-0,-59.656l14.531,-0l24.305,36.966l-0,-36.966l14.531,-0l0,59.656Z" style="fill:url(#_Linear13);fill-rule:nonzero;"/><path d="M712.879,225.037l-0,11.642l-15.806,0l-0,48.014l-14.532,0l0,-48.014l-15.806,0l-0,-11.642l46.144,-0Z" style="fill:url(#_Linear14);fill-rule:nonzero;"/><path d="M734.719,236.679l-0,12.067l19.46,0l0,11.218l-19.46,-0l-0,13.087l22.01,-0l-0,11.642l-36.542,0l0,-59.656l36.542,-0l-0,11.642l-22.01,0Z" style="fill:url(#_Linear15);fill-rule:nonzero;"/><path d="M796.585,284.693l-12.408,-22.52l-3.484,0l0,22.52l-14.531,0l-0,-59.656l24.389,-0c4.702,-0 8.71,0.821 12.025,2.464c3.314,1.643 5.792,3.895 7.435,6.756c1.643,2.861 2.465,6.048 2.465,9.561c-0,3.965 -1.119,7.506 -3.357,10.622c-2.238,3.116 -5.538,5.326 -9.9,6.629l13.767,23.624l-16.401,0Zm-15.892,-32.802l9.008,-0c2.663,-0 4.66,-0.652 5.991,-1.955c1.332,-1.303 1.997,-3.144 1.997,-5.524c0,-2.266 -0.665,-4.05 -1.997,-5.353c-1.331,-1.303 -3.328,-1.955 -5.991,-1.955l-9.008,0l0,14.787Z" style="fill:url(#_Linear16);fill-rule:nonzero;"/></g></g><defs><linearGradient id="_Linear1" x1="0" y1="0" x2="1" y2="0" gradientUnits="userSpaceOnUse" gradientTransform="matrix(376.633,0,0,193.64,28.867,206.511)"><stop offset="0" style="stop-color:#ff8400;stop-opacity:1"/><stop offset="1" style="stop-color:#f86c30;stop-opacity:1"/></linearGradient><linearGradient id="_Linear2" x1="0" y1="0" x2="1" y2="0" gradientUnits="userSpaceOnUse" gradientTransform="matrix(376.633,0,0,193.64,28.867,206.511)"><stop offset="0" style="stop-color:#ff8400;stop-opacity:1"/><stop offset="1" style="stop-color:#f86c30;stop-opacity:1"/></linearGradient><linearGradient id="_Linear3" x1="0" y1="0" x2="1" y2="0" gradientUnits="userSpaceOnUse" gradientTransform="matrix(403.466,0,0,187.927,412.834,289.039)"><stop offset="0" style="stop-color:#d8d8d8;stop-opacity:1"/><stop offset="1" style="stop-color:#fff;stop-opacity:1"/></linearGradient><linearGradient id="_Linear4" x1="0" y1="0" x2="1" y2="0" gradientUnits="userSpaceOnUse" gradientTransform="matrix(403.466,0,0,187.927,412.834,289.039)"><stop offset="0" style="stop-color:#d8d8d8;stop-opacity:1"/><stop offset="1" style="stop-color:#fff;stop-opacity:1"/></linearGradient><linearGradient id="_Linear5" x1="0" y1="0" x2="1" y2="0" gradientUnits="userSpaceOnUse" gradientTransform="matrix(403.466,0,0,187.927,412.834,289.039)"><stop offset="0" style="stop-color:#d8d8d8;stop-opacity:1"/><stop offset="1" style="stop-color:#fff;stop-opacity:1"/></linearGradient><linearGradient id="_Linear6" x1="0" y1="0" x2="1" y2="0" gradientUnits="userSpaceOnUse" gradientTransform="matrix(403.466,0,0,187.927,412.834,289.039)"><stop offset="0" style="stop-color:#d8d8d8;stop-opacity:1"/><stop offset="1" style="stop-color:#fff;stop-opacity:1"/></linearGradient><linearGradient id="_Linear7" x1="0" y1="0" x2="1" y2="0" gradientUnits="userSpaceOnUse" gradientTransform="matrix(403.466,0,0,187.927,412.834,289.039)"><stop offset="0" style="stop-color:#d8d8d8;stop-opacity:1"/><stop offset="1" style="stop-color:#fff;stop-opacity:1"/></linearGradient><linearGradient id="_Linear8" x1="0" y1="0" x2="1" y2="0" gradientUnits="userSpaceOnUse" gradientTransform="matrix(403.466,0,0,187.927,412.834,289.039)"><stop offset="0" style="stop-color:#d8d8d8;stop-opacity:1"/><stop offset="1" style="stop-color:#fff;stop-opacity:1"/></linearGradient><linearGradient id="_Linear9" x1="0" y1="0" x2="1" y2="0" gradientUnits="userSpaceOnUse" gradientTransform="matrix(403.466,0,0,187.927,412.834,289.039)"><stop offset="0" style="stop-color:#d8d8d8;stop-opacity:1"/><stop offset="1" style="stop-color:#fff;stop-opacity:1"/></linearGradient><linearGradient id="_Linear10" x1="0" y1="0" x2="1" y2="0" gradientUnits="userSpaceOnUse" gradientTransform="matrix(403.466,0,0,187.927,412.834,289.039)"><stop offset="0" style="stop-color:#d8d8d8;stop-opacity:1"/><stop offset="1" style="stop-color:#fff;stop-opacity:1"/></linearGradient><linearGradient id="_Linear11" x1="0" y1="0" x2="1" y2="0" gradientUnits="userSpaceOnUse" gradientTransform="matrix(403.466,0,0,187.927,412.834,289.039)"><stop offset="0" style="stop-color:#d8d8d8;stop-opacity:1"/><stop offset="1" style="stop-color:#fff;stop-opacity:1"/></linearGradient><linearGradient id="_Linear12" x1="0" y1="0" x2="1" y2="0" gradientUnits="userSpaceOnUse" gradientTransform="matrix(403.466,0,0,187.927,412.834,289.039)"><stop offset="0" style="stop-color:#d8d8d8;stop-opacity:1"/><stop offset="1" style="stop-color:#fff;stop-opacity:1"/></linearGradient><linearGradient id="_Linear13" x1="0" y1="0" x2="1" y2="0" gradientUnits="userSpaceOnUse" gradientTransform="matrix(403.466,0,0,187.927,412.834,289.039)"><stop offset="0" style="stop-color:#d8d8d8;stop-opacity:1"/><stop offset="1" style="stop-color:#fff;stop-opacity:1"/></linearGradient><linearGradient id="_Linear14" x1="0" y1="0" x2="1" y2="0" gradientUnits="userSpaceOnUse" gradientTransform="matrix(403.466,0,0,187.927,412.834,289.039)"><stop offset="0" style="stop-color:#d8d8d8;stop-opacity:1"/><stop offset="1" style="stop-color:#fff;stop-opacity:1"/></linearGradient><linearGradient id="_Linear15" x1="0" y1="0" x2="1" y2="0" gradientUnits="userSpaceOnUse" gradientTransform="matrix(403.466,0,0,187.927,412.834,289.039)"><stop offset="0" style="stop-color:#d8d8d8;stop-opacity:1"/><stop offset="1" style="stop-color:#fff;stop-opacity:1"/></linearGradient><linearGradient id="_Linear16" x1="0" y1="0" x2="1" y2="0" gradientUnits="userSpaceOnUse" gradientTransform="matrix(403.466,0,0,187.927,412.834,289.039)"><stop offset="0" style="stop-color:#d8d8d8;stop-opacity:1"/><stop offset="1" style="stop-color:#fff;stop-opacity:1"/></linearGradient></defs></svg>