<?xml version="1.0" encoding="UTF-8" standalone="no"?><!DOCTYPE svg PUBLIC "-//W3C//DTD SVG 1.1//EN" "http://www.w3.org/Graphics/SVG/1.1/DTD/svg11.dtd"><svg width="100%" height="100%" viewBox="0 0 2250 2250" version="1.1" xmlns="http://www.w3.org/2000/svg" xmlns:xlink="http://www.w3.org/1999/xlink" xml:space="preserve" xmlns:serif="http://www.serif.com/" style="fill-rule:evenodd;clip-rule:evenodd;stroke-linejoin:round;stroke-miterlimit:2;"><g><path d="M562.239,1400.89c-0,202.756 164.612,367.368 367.367,367.368c202.756,0 367.368,-164.612 367.368,-367.368l7.942,-781.824l365.625,-2.107l-6.199,783.931c-0,405.512 -329.224,734.736 -734.736,734.736c-405.511,-0 -734.735,-329.224 -734.735,-734.736l-0,-1349.85l367.886,0l-0.518,1349.85Z" style="fill:#fef9ec;"/><g><path d="M2079.91,1096.33c-116.571,-93.638 -222.287,-178.935 -350.383,-218.303c-95.199,-29.258 -201.421,-40.208 -329.244,-11.514c-136.21,31.325 -252.176,105.872 -348.042,218.741c-119.521,140.72 -211.719,341.145 -311.572,522.631c-76.713,139.429 -145.519,277.306 -281.186,303.282c-116.223,22.253 -219.643,-83.881 -187.508,-285.862c23.757,-149.322 103.759,-337.618 268.748,-566.915c300.683,-418.741 223.559,-716.242 65.674,-845.526c-207.999,-170.319 -601.019,-71.324 -477.341,458.392c1.421,7.803 8.91,12.986 16.713,11.565c7.804,-1.42 12.986,-8.909 11.566,-16.713c-56.563,-430.078 223.105,-522.54 375.044,-371.298c112.709,112.192 124.269,343.363 -140.059,645.907c-288.816,331.609 -385.776,603.041 -390.568,797.875c-8.667,352.399 258.193,507.268 503.214,482.015c132.375,-13.642 243.038,-78.789 342.558,-171.852c135.304,-126.524 243.593,-319.633 357.143,-495.097c80.776,-124.82 153.315,-248.772 276.547,-268.091c54.75,-8.925 96.272,2.507 133.448,21.558c62.965,32.266 115.5,84.505 175.887,136.511c95.842,79.852 238.482,66.869 318.334,-28.972c79.851,-95.842 66.869,-238.483 -28.973,-318.334Z" style="fill:url(#_Linear1);"/><path d="M2250,1629l-688.111,-91.465l648.034,-601.54l40.077,693.005Z" style="fill:#ff8400;"/></g><path d="M1484.24,1882.59c-134.75,154.991 -245.649,-226.68 -201.524,-380.075c9.285,-32.277 381.628,-101.619 381.628,-101.619c-0,184.211 -67.938,352.679 -180.104,481.694Z" style="fill:#fef9ec;"/><path d="M309.888,1795.54c-72.808,-114.025 257.698,-322.79 267.654,-289.463c45.277,151.57 185.854,262.189 352.064,262.189c128.502,0 241.683,-66.12 307.347,-166.166c16.045,-24.446 36.073,67.186 23.185,181.096c-17.59,155.469 -96.496,352.438 -330.532,352.438c-260.313,-0 -489.189,-135.668 -619.718,-340.094Z" style="fill:#fef9ec;"/><path d="M562.568,543.448l-367.697,5.921l-0,-498.319l367.886,0l-0.189,492.398Z" style="fill:#fef9ec;"/></g><defs><linearGradient id="_Linear1" x1="0" y1="0" x2="1" y2="0" gradientUnits="userSpaceOnUse" gradientTransform="matrix(-1662.95,-1120.97,1120.97,-1662.95,1731.24,1387.6)"><stop offset="0" style="stop-color:#ff8400;stop-opacity:1"/><stop offset="1" style="stop-color:#f86c30;stop-opacity:1"/></linearGradient></defs></svg>