<?xml version="1.0" encoding="UTF-8" standalone="no"?>
<!DOCTYPE svg PUBLIC "-//W3C//DTD SVG 1.1//EN" "http://www.w3.org/Graphics/SVG/1.1/DTD/svg11.dtd">
<svg width="100%" height="100%" viewBox="0 0 4290 1160" version="1.1" xmlns="http://www.w3.org/2000/svg" xmlns:xlink="http://www.w3.org/1999/xlink" xml:space="preserve" xmlns:serif="http://www.serif.com/" style="fill-rule:evenodd;clip-rule:evenodd;stroke-linecap:round;stroke-linejoin:round;stroke-miterlimit:1.5;">
    <g transform="matrix(1,0,0,1,-902.962,-925.736)">
        <g>
            <g transform="matrix(1,0,0,0.996669,1071.82,-259.27)">
                <text x="1354.29px" y="2088px" style="font-family:'Poppins-Bold', 'Poppins';font-weight:700;font-size:882.105px;fill:white;">uSeek</text>
            </g>
            <g transform="matrix(0.69516,0,0,0.817485,597.673,362.56)">
                <path d="M1415.5,1330L1415.5,1471L802.91,1471C691.232,1471 600.541,1547.73 599.972,1642.69C599.103,1787.73 598,1972 598,1972L2233,1972C2233,1972 2233,1458.49 2233,1150.17C2233,1012.04 2117.47,893.438 1957.88,867.725C1568.51,804.973 1179.15,809.662 789.785,882.186C677.79,903.116 598.006,987.491 598.006,1085C598,1085 598,1085 598,1085" style="fill:none;stroke:url(#_Linear1);stroke-width:291.03px;"/>
            </g>
        </g>
    </g>
    <defs>
        <linearGradient id="_Linear1" x1="0" y1="0" x2="1" y2="0" gradientUnits="userSpaceOnUse" gradientTransform="matrix(1635,0,0,1148.02,598,1397.99)"><stop offset="0" style="stop-color:rgb(255,132,0);stop-opacity:1"/><stop offset="1" style="stop-color:rgb(248,108,48);stop-opacity:1"/></linearGradient>
    </defs>
</svg>
